<svg id="Capa_1" data-name="Capa 1" xmlns="http://www.w3.org/2000/svg" viewBox="0 0 272.56 272.56"><defs><style>.cls-1,.cls-5{fill:#e0b43e;}.cls-1{stroke:#5a4c9a;}.cls-1,.cls-2,.cls-3,.cls-4,.cls-5{stroke-miterlimit:10;}.cls-1,.cls-2,.cls-3,.cls-5{stroke-width:6px;}.cls-2{fill:#9565a8;}.cls-2,.cls-3,.cls-5{stroke:#5a4c9b;}.cls-3,.cls-4{fill:none;stroke-linecap:round;}.cls-4{stroke:#e0b43e;stroke-width:5px;}</style></defs><circle class="cls-1" cx="136.28" cy="136.28" r="133.28"/><path class="cls-2" d="M181.94,285.29l20.82,61.87a9.58,9.58,0,0,0,9.09,6.54h85.53a9.61,9.61,0,0,0,9.1-6.54L323.7,296a8.12,8.12,0,0,0-7.69-10.7Z" transform="translate(-115.21 -178.85)"/><path class="cls-3" d="M181.94,285.29l-8.32-20.78A11.41,11.41,0,0,0,163,257.34H140.17" transform="translate(-115.21 -178.85)"/><line class="cls-4" x1="108.16" y1="134.4" x2="173.93" y2="134.4"/><line class="cls-4" x1="111.94" y1="153.8" x2="171.47" y2="153.8"/><circle class="cls-5" cx="99.28" cy="191.62" r="13.15"/><circle class="cls-5" cx="176.57" cy="191.62" r="13.15"/></svg>