<svg id="Capa_1" data-name="Capa 1" xmlns="http://www.w3.org/2000/svg" viewBox="0 0 596.06 841.89"><defs><style>.cls-1{fill:#604092;}.cls-2{fill:#9664a7;}</style></defs><rect class="cls-1" width="596.06" height="841.89"/><polygon class="cls-2" points="0 29.32 16.86 0 34.18 29.32 17.09 52.5 0 29.32"/><polygon class="cls-2" points="36.05 29.32 52.91 0 70.23 29.32 53.14 52.5 36.05 29.32"/><polygon class="cls-2" points="70.23 29.32 87.09 0 104.42 29.32 87.33 52.5 70.23 29.32"/><polygon class="cls-2" points="106.29 29.32 123.14 0 140.47 29.32 123.38 52.5 106.29 29.32"/><polygon class="cls-2" points="140.47 29.32 157.33 0 174.65 29.32 157.56 52.5 140.47 29.32"/><polygon class="cls-2" points="176.52 29.32 193.38 0 210.7 29.32 193.61 52.5 176.52 29.32"/><polygon class="cls-2" points="210.7 29.32 227.56 0 244.88 29.32 227.79 52.5 210.7 29.32"/><polygon class="cls-2" points="246.76 29.32 263.61 0 280.94 29.32 263.85 52.5 246.76 29.32"/><polygon class="cls-2" points="280.94 29.32 297.8 0 315.12 29.32 298.03 52.5 280.94 29.32"/><polygon class="cls-2" points="316.99 29.32 333.85 0 351.17 29.32 334.08 52.5 316.99 29.32"/><polygon class="cls-2" points="351.17 29.32 368.03 0 385.36 29.32 368.26 52.5 351.17 29.32"/><polygon class="cls-2" points="387.23 29.32 404.08 0 421.41 29.32 404.32 52.5 387.23 29.32"/><polygon class="cls-2" points="421.41 29.32 438.26 0 455.59 29.32 438.5 52.5 421.41 29.32"/><polygon class="cls-2" points="457.46 29.32 474.32 0 491.64 29.32 474.55 52.5 457.46 29.32"/><polygon class="cls-2" points="491.64 29.32 508.5 0 525.82 29.32 508.73 52.5 491.64 29.32"/><polygon class="cls-2" points="527.7 29.32 544.55 0 561.88 29.32 544.79 52.5 527.7 29.32"/><polygon class="cls-2" points="561.88 29.32 578.73 0 596.06 29.32 578.97 52.5 561.88 29.32"/><polygon class="cls-2" points="0 81.82 16.86 52.5 34.18 81.82 17.09 105 0 81.82"/><polygon class="cls-2" points="36.05 81.82 52.91 52.5 70.23 81.82 53.14 105 36.05 81.82"/><polygon class="cls-2" points="70.23 81.82 87.09 52.5 104.42 81.82 87.33 105 70.23 81.82"/><polygon class="cls-2" points="106.29 81.82 123.14 52.5 140.47 81.82 123.38 105 106.29 81.82"/><polygon class="cls-2" points="140.47 81.82 157.33 52.5 174.65 81.82 157.56 105 140.47 81.82"/><polygon class="cls-2" points="176.52 81.82 193.38 52.5 210.7 81.82 193.61 105 176.52 81.82"/><polygon class="cls-2" points="210.7 81.82 227.56 52.5 244.88 81.82 227.79 105 210.7 81.82"/><polygon class="cls-2" points="246.76 81.82 263.61 52.5 280.94 81.82 263.85 105 246.76 81.82"/><polygon class="cls-2" points="280.94 81.82 297.8 52.5 315.12 81.82 298.03 105 280.94 81.82"/><polygon class="cls-2" points="316.99 81.82 333.85 52.5 351.17 81.82 334.08 105 316.99 81.82"/><polygon class="cls-2" points="351.17 81.82 368.03 52.5 385.36 81.82 368.26 105 351.17 81.82"/><polygon class="cls-2" points="387.23 81.82 404.08 52.5 421.41 81.82 404.32 105 387.23 81.82"/><polygon class="cls-2" points="421.41 81.82 438.26 52.5 455.59 81.82 438.5 105 421.41 81.82"/><polygon class="cls-2" points="457.46 81.82 474.32 52.5 491.64 81.82 474.55 105 457.46 81.82"/><polygon class="cls-2" points="491.64 81.82 508.5 52.5 525.82 81.82 508.73 105 491.64 81.82"/><polygon class="cls-2" points="527.7 81.82 544.55 52.5 561.88 81.82 544.79 105 527.7 81.82"/><polygon class="cls-2" points="561.88 81.82 578.73 52.5 596.06 81.82 578.97 105 561.88 81.82"/><polygon class="cls-2" points="0 134.32 16.86 105 34.18 134.32 17.09 157.5 0 134.32"/><polygon class="cls-2" points="36.05 134.32 52.91 105 70.23 134.32 53.14 157.5 36.05 134.32"/><polygon class="cls-2" points="70.23 134.32 87.09 105 104.42 134.32 87.33 157.5 70.23 134.32"/><polygon class="cls-2" points="106.29 134.32 123.14 105 140.47 134.32 123.38 157.5 106.29 134.32"/><polygon class="cls-2" points="140.47 134.32 157.33 105 174.65 134.32 157.56 157.5 140.47 134.32"/><polygon class="cls-2" points="176.52 134.32 193.38 105 210.7 134.32 193.61 157.5 176.52 134.32"/><polygon class="cls-2" points="210.7 134.32 227.56 105 244.88 134.32 227.79 157.5 210.7 134.32"/><polygon class="cls-2" points="246.76 134.32 263.61 105 280.94 134.32 263.85 157.5 246.76 134.32"/><polygon class="cls-2" points="280.94 134.32 297.8 105 315.12 134.32 298.03 157.5 280.94 134.32"/><polygon class="cls-2" points="316.99 134.32 333.85 105 351.17 134.32 334.08 157.5 316.99 134.32"/><polygon class="cls-2" points="351.17 134.32 368.03 105 385.36 134.32 368.26 157.5 351.17 134.32"/><polygon class="cls-2" points="387.23 134.32 404.08 105 421.41 134.32 404.32 157.5 387.23 134.32"/><polygon class="cls-2" points="421.41 134.32 438.26 105 455.59 134.32 438.5 157.5 421.41 134.32"/><polygon class="cls-2" points="457.46 134.32 474.32 105 491.64 134.32 474.55 157.5 457.46 134.32"/><polygon class="cls-2" points="491.64 134.32 508.5 105 525.82 134.32 508.73 157.5 491.64 134.32"/><polygon class="cls-2" points="527.7 134.32 544.55 105 561.88 134.32 544.79 157.5 527.7 134.32"/><polygon class="cls-2" points="561.88 134.32 578.73 105 596.06 134.32 578.97 157.5 561.88 134.32"/><polygon class="cls-2" points="0 186.82 16.86 157.5 34.18 186.82 17.09 210 0 186.82"/><polygon class="cls-2" points="36.05 186.82 52.91 157.5 70.23 186.82 53.14 210 36.05 186.82"/><polygon class="cls-2" points="70.23 186.82 87.09 157.5 104.42 186.82 87.33 210 70.23 186.82"/><polygon class="cls-2" points="106.29 186.82 123.14 157.5 140.47 186.82 123.38 210 106.29 186.82"/><polygon class="cls-2" points="140.47 186.82 157.33 157.5 174.65 186.82 157.56 210 140.47 186.82"/><polygon class="cls-2" points="176.52 186.82 193.38 157.5 210.7 186.82 193.61 210 176.52 186.82"/><polygon class="cls-2" points="210.7 186.82 227.56 157.5 244.88 186.82 227.79 210 210.7 186.82"/><polygon class="cls-2" points="246.76 186.82 263.61 157.5 280.94 186.82 263.85 210 246.76 186.82"/><polygon class="cls-2" points="280.94 186.82 297.8 157.5 315.12 186.82 298.03 210 280.94 186.82"/><polygon class="cls-2" points="316.99 186.82 333.85 157.5 351.17 186.82 334.08 210 316.99 186.82"/><polygon class="cls-2" points="351.17 186.82 368.03 157.5 385.36 186.82 368.26 210 351.17 186.82"/><polygon class="cls-2" points="387.23 186.82 404.08 157.5 421.41 186.82 404.32 210 387.23 186.82"/><polygon class="cls-2" points="421.41 186.82 438.26 157.5 455.59 186.82 438.5 210 421.41 186.82"/><polygon class="cls-2" points="457.46 186.82 474.32 157.5 491.64 186.82 474.55 210 457.46 186.82"/><polygon class="cls-2" points="491.64 186.82 508.5 157.5 525.82 186.82 508.73 210 491.64 186.82"/><polygon class="cls-2" points="527.7 186.82 544.55 157.5 561.88 186.82 544.79 210 527.7 186.82"/><polygon class="cls-2" points="561.88 186.82 578.73 157.5 596.06 186.82 578.97 210 561.88 186.82"/><polygon class="cls-2" points="0 239.32 16.86 210 34.18 239.32 17.09 262.5 0 239.32"/><polygon class="cls-2" points="36.05 239.32 52.91 210 70.23 239.32 53.14 262.5 36.05 239.32"/><polygon class="cls-2" points="70.23 239.32 87.09 210 104.42 239.32 87.33 262.5 70.23 239.32"/><polygon class="cls-2" points="106.29 239.32 123.14 210 140.47 239.32 123.38 262.5 106.29 239.32"/><polygon class="cls-2" points="140.47 239.32 157.33 210 174.65 239.32 157.56 262.5 140.47 239.32"/><polygon class="cls-2" points="176.52 239.32 193.38 210 210.7 239.32 193.61 262.5 176.52 239.32"/><polygon class="cls-2" points="210.7 239.32 227.56 210 244.88 239.32 227.79 262.5 210.7 239.32"/><polygon class="cls-2" points="246.76 239.32 263.61 210 280.94 239.32 263.85 262.5 246.76 239.32"/><polygon class="cls-2" points="280.94 239.32 297.8 210 315.12 239.32 298.03 262.5 280.94 239.32"/><polygon class="cls-2" points="316.99 239.32 333.85 210 351.17 239.32 334.08 262.5 316.99 239.32"/><polygon class="cls-2" points="351.17 239.32 368.03 210 385.36 239.32 368.26 262.5 351.17 239.32"/><polygon class="cls-2" points="387.23 239.32 404.08 210 421.41 239.32 404.32 262.5 387.23 239.32"/><polygon class="cls-2" points="421.41 239.32 438.26 210 455.59 239.32 438.5 262.5 421.41 239.32"/><polygon class="cls-2" points="457.46 239.32 474.32 210 491.64 239.32 474.55 262.5 457.46 239.32"/><polygon class="cls-2" points="491.64 239.32 508.5 210 525.82 239.32 508.73 262.5 491.64 239.32"/><polygon class="cls-2" points="527.7 239.32 544.55 210 561.88 239.32 544.79 262.5 527.7 239.32"/><polygon class="cls-2" points="561.88 239.32 578.73 210 596.06 239.32 578.97 262.5 561.88 239.32"/><polygon class="cls-2" points="0 291.82 16.86 262.5 34.18 291.82 17.09 315 0 291.82"/><polygon class="cls-2" points="36.05 291.82 52.91 262.5 70.23 291.82 53.14 315 36.05 291.82"/><polygon class="cls-2" points="70.23 291.82 87.09 262.5 104.42 291.82 87.33 315 70.23 291.82"/><polygon class="cls-2" points="106.29 291.82 123.14 262.5 140.47 291.82 123.38 315 106.29 291.82"/><polygon class="cls-2" points="140.47 291.82 157.33 262.5 174.65 291.82 157.56 315 140.47 291.82"/><polygon class="cls-2" points="176.52 291.82 193.38 262.5 210.7 291.82 193.61 315 176.52 291.82"/><polygon class="cls-2" points="210.7 291.82 227.56 262.5 244.88 291.82 227.79 315 210.7 291.82"/><polygon class="cls-2" points="246.76 291.82 263.61 262.5 280.94 291.82 263.85 315 246.76 291.82"/><polygon class="cls-2" points="280.94 291.82 297.8 262.5 315.12 291.82 298.03 315 280.94 291.82"/><polygon class="cls-2" points="316.99 291.82 333.85 262.5 351.17 291.82 334.08 315 316.99 291.82"/><polygon class="cls-2" points="351.17 291.82 368.03 262.5 385.36 291.82 368.26 315 351.17 291.82"/><polygon class="cls-2" points="387.23 291.82 404.08 262.5 421.41 291.82 404.32 315 387.23 291.82"/><polygon class="cls-2" points="421.41 291.82 438.26 262.5 455.59 291.82 438.5 315 421.41 291.82"/><polygon class="cls-2" points="457.46 291.82 474.32 262.5 491.64 291.82 474.55 315 457.46 291.82"/><polygon class="cls-2" points="491.64 291.82 508.5 262.5 525.82 291.82 508.73 315 491.64 291.82"/><polygon class="cls-2" points="527.7 291.82 544.55 262.5 561.88 291.82 544.79 315 527.7 291.82"/><polygon class="cls-2" points="561.88 291.82 578.73 262.5 596.06 291.82 578.97 315 561.88 291.82"/><polygon class="cls-2" points="0 344.32 16.86 315 34.18 344.32 17.09 367.5 0 344.32"/><polygon class="cls-2" points="36.05 344.32 52.91 315 70.23 344.32 53.14 367.5 36.05 344.32"/><polygon class="cls-2" points="70.23 344.32 87.09 315 104.42 344.32 87.33 367.5 70.23 344.32"/><polygon class="cls-2" points="106.29 344.32 123.14 315 140.47 344.32 123.38 367.5 106.29 344.32"/><polygon class="cls-2" points="140.47 344.32 157.33 315 174.65 344.32 157.56 367.5 140.47 344.32"/><polygon class="cls-2" points="176.52 344.32 193.38 315 210.7 344.32 193.61 367.5 176.52 344.32"/><polygon class="cls-2" points="210.7 344.32 227.56 315 244.88 344.32 227.79 367.5 210.7 344.32"/><polygon class="cls-2" points="246.76 344.32 263.61 315 280.94 344.32 263.85 367.5 246.76 344.32"/><polygon class="cls-2" points="280.94 344.32 297.8 315 315.12 344.32 298.03 367.5 280.94 344.32"/><polygon class="cls-2" points="316.99 344.32 333.85 315 351.17 344.32 334.08 367.5 316.99 344.32"/><polygon class="cls-2" points="351.17 344.32 368.03 315 385.36 344.32 368.26 367.5 351.17 344.32"/><polygon class="cls-2" points="387.23 344.32 404.08 315 421.41 344.32 404.32 367.5 387.23 344.32"/><polygon class="cls-2" points="421.41 344.32 438.26 315 455.59 344.32 438.5 367.5 421.41 344.32"/><polygon class="cls-2" points="457.46 344.32 474.32 315 491.64 344.32 474.55 367.5 457.46 344.32"/><polygon class="cls-2" points="491.64 344.32 508.5 315 525.82 344.32 508.73 367.5 491.64 344.32"/><polygon class="cls-2" points="527.7 344.32 544.55 315 561.88 344.32 544.79 367.5 527.7 344.32"/><polygon class="cls-2" points="561.88 344.32 578.73 315 596.06 344.32 578.97 367.5 561.88 344.32"/><polygon class="cls-2" points="0 396.82 16.86 367.5 34.18 396.82 17.09 420 0 396.82"/><polygon class="cls-2" points="36.05 396.82 52.91 367.5 70.23 396.82 53.14 420 36.05 396.82"/><polygon class="cls-2" points="70.23 396.82 87.09 367.5 104.42 396.82 87.33 420 70.23 396.82"/><polygon class="cls-2" points="106.29 396.82 123.14 367.5 140.47 396.82 123.38 420 106.29 396.82"/><polygon class="cls-2" points="140.47 396.82 157.33 367.5 174.65 396.82 157.56 420 140.47 396.82"/><polygon class="cls-2" points="176.52 396.82 193.38 367.5 210.7 396.82 193.61 420 176.52 396.82"/><polygon class="cls-2" points="210.7 396.82 227.56 367.5 244.88 396.82 227.79 420 210.7 396.82"/><polygon class="cls-2" points="246.76 396.82 263.61 367.5 280.94 396.82 263.85 420 246.76 396.82"/><polygon class="cls-2" points="280.94 396.82 297.8 367.5 315.12 396.82 298.03 420 280.94 396.82"/><polygon class="cls-2" points="316.99 396.82 333.85 367.5 351.17 396.82 334.08 420 316.99 396.82"/><polygon class="cls-2" points="351.17 396.82 368.03 367.5 385.36 396.82 368.26 420 351.17 396.82"/><polygon class="cls-2" points="387.23 396.82 404.08 367.5 421.41 396.82 404.32 420 387.23 396.82"/><polygon class="cls-2" points="421.41 396.82 438.26 367.5 455.59 396.82 438.5 420 421.41 396.82"/><polygon class="cls-2" points="457.46 396.82 474.32 367.5 491.64 396.82 474.55 420 457.46 396.82"/><polygon class="cls-2" points="491.64 396.82 508.5 367.5 525.82 396.82 508.73 420 491.64 396.82"/><polygon class="cls-2" points="527.7 396.82 544.55 367.5 561.88 396.82 544.79 420 527.7 396.82"/><polygon class="cls-2" points="561.88 396.82 578.73 367.5 596.06 396.82 578.97 420 561.88 396.82"/><polygon class="cls-2" points="0 449.32 16.86 420 34.18 449.32 17.09 472.5 0 449.32"/><polygon class="cls-2" points="36.05 449.32 52.91 420 70.23 449.32 53.14 472.5 36.05 449.32"/><polygon class="cls-2" points="70.23 449.32 87.09 420 104.42 449.32 87.33 472.5 70.23 449.32"/><polygon class="cls-2" points="106.29 449.32 123.14 420 140.47 449.32 123.38 472.5 106.29 449.32"/><polygon class="cls-2" points="140.47 449.32 157.33 420 174.65 449.32 157.56 472.5 140.47 449.32"/><polygon class="cls-2" points="176.52 449.32 193.38 420 210.7 449.32 193.61 472.5 176.52 449.32"/><polygon class="cls-2" points="210.7 449.32 227.56 420 244.88 449.32 227.79 472.5 210.7 449.32"/><polygon class="cls-2" points="246.76 449.32 263.61 420 280.94 449.32 263.85 472.5 246.76 449.32"/><polygon class="cls-2" points="280.94 449.32 297.8 420 315.12 449.32 298.03 472.5 280.94 449.32"/><polygon class="cls-2" points="316.99 449.32 333.85 420 351.17 449.32 334.08 472.5 316.99 449.32"/><polygon class="cls-2" points="351.17 449.32 368.03 420 385.36 449.32 368.26 472.5 351.17 449.32"/><polygon class="cls-2" points="387.23 449.32 404.08 420 421.41 449.32 404.32 472.5 387.23 449.32"/><polygon class="cls-2" points="421.41 449.32 438.26 420 455.59 449.32 438.5 472.5 421.41 449.32"/><polygon class="cls-2" points="457.46 449.32 474.32 420 491.64 449.32 474.55 472.5 457.46 449.32"/><polygon class="cls-2" points="491.64 449.32 508.5 420 525.82 449.32 508.73 472.5 491.64 449.32"/><polygon class="cls-2" points="527.7 449.32 544.55 420 561.88 449.32 544.79 472.5 527.7 449.32"/><polygon class="cls-2" points="561.88 449.32 578.73 420 596.06 449.32 578.97 472.5 561.88 449.32"/><polygon class="cls-2" points="0 501.82 16.86 472.5 34.18 501.82 17.09 525 0 501.82"/><polygon class="cls-2" points="36.05 501.82 52.91 472.5 70.23 501.82 53.14 525 36.05 501.82"/><polygon class="cls-2" points="70.23 501.82 87.09 472.5 104.42 501.82 87.33 525 70.23 501.82"/><polygon class="cls-2" points="106.29 501.82 123.14 472.5 140.47 501.82 123.38 525 106.29 501.82"/><polygon class="cls-2" points="140.47 501.82 157.33 472.5 174.65 501.82 157.56 525 140.47 501.82"/><polygon class="cls-2" points="176.52 501.82 193.38 472.5 210.7 501.82 193.61 525 176.52 501.82"/><polygon class="cls-2" points="210.7 501.82 227.56 472.5 244.88 501.82 227.79 525 210.7 501.82"/><polygon class="cls-2" points="246.76 501.82 263.61 472.5 280.94 501.82 263.85 525 246.76 501.82"/><polygon class="cls-2" points="280.94 501.82 297.8 472.5 315.12 501.82 298.03 525 280.94 501.82"/><polygon class="cls-2" points="316.99 501.82 333.85 472.5 351.17 501.82 334.08 525 316.99 501.82"/><polygon class="cls-2" points="351.17 501.82 368.03 472.5 385.36 501.82 368.26 525 351.17 501.82"/><polygon class="cls-2" points="387.23 501.82 404.08 472.5 421.41 501.82 404.32 525 387.23 501.82"/><polygon class="cls-2" points="421.41 501.82 438.26 472.5 455.59 501.82 438.5 525 421.41 501.82"/><polygon class="cls-2" points="457.46 501.82 474.32 472.5 491.64 501.82 474.55 525 457.46 501.82"/><polygon class="cls-2" points="491.64 501.82 508.5 472.5 525.82 501.82 508.73 525 491.64 501.82"/><polygon class="cls-2" points="527.7 501.82 544.55 472.5 561.88 501.82 544.79 525 527.7 501.82"/><polygon class="cls-2" points="561.88 501.82 578.73 472.5 596.06 501.82 578.97 525 561.88 501.82"/><polygon class="cls-2" points="0 554.32 16.86 525 34.18 554.32 17.09 577.5 0 554.32"/><polygon class="cls-2" points="36.05 554.32 52.91 525 70.23 554.32 53.14 577.5 36.05 554.32"/><polygon class="cls-2" points="70.23 554.32 87.09 525 104.42 554.32 87.33 577.5 70.23 554.32"/><polygon class="cls-2" points="106.29 554.32 123.14 525 140.47 554.32 123.38 577.5 106.29 554.32"/><polygon class="cls-2" points="140.47 554.32 157.33 525 174.65 554.32 157.56 577.5 140.47 554.32"/><polygon class="cls-2" points="176.52 554.32 193.38 525 210.7 554.32 193.61 577.5 176.52 554.32"/><polygon class="cls-2" points="210.7 554.32 227.56 525 244.88 554.32 227.79 577.5 210.7 554.32"/><polygon class="cls-2" points="246.76 554.32 263.61 525 280.94 554.32 263.85 577.5 246.76 554.32"/><polygon class="cls-2" points="280.94 554.32 297.8 525 315.12 554.32 298.03 577.5 280.94 554.32"/><polygon class="cls-2" points="316.99 554.32 333.85 525 351.17 554.32 334.08 577.5 316.99 554.32"/><polygon class="cls-2" points="351.17 554.32 368.03 525 385.36 554.32 368.26 577.5 351.17 554.32"/><polygon class="cls-2" points="387.23 554.32 404.08 525 421.41 554.32 404.32 577.5 387.23 554.32"/><polygon class="cls-2" points="421.41 554.32 438.26 525 455.59 554.32 438.5 577.5 421.41 554.32"/><polygon class="cls-2" points="457.46 554.32 474.32 525 491.64 554.32 474.55 577.5 457.46 554.32"/><polygon class="cls-2" points="491.64 554.32 508.5 525 525.82 554.32 508.73 577.5 491.64 554.32"/><polygon class="cls-2" points="527.7 554.32 544.55 525 561.88 554.32 544.79 577.5 527.7 554.32"/><polygon class="cls-2" points="561.88 554.32 578.73 525 596.06 554.32 578.97 577.5 561.88 554.32"/><polygon class="cls-2" points="0 606.82 16.86 577.5 34.18 606.82 17.09 630 0 606.82"/><polygon class="cls-2" points="36.05 606.82 52.91 577.5 70.23 606.82 53.14 630 36.05 606.82"/><polygon class="cls-2" points="70.23 606.82 87.09 577.5 104.42 606.82 87.33 630 70.23 606.82"/><polygon class="cls-2" points="106.29 606.82 123.14 577.5 140.47 606.82 123.38 630 106.29 606.82"/><polygon class="cls-2" points="140.47 606.82 157.33 577.5 174.65 606.82 157.56 630 140.47 606.82"/><polygon class="cls-2" points="176.52 606.82 193.38 577.5 210.7 606.82 193.61 630 176.52 606.82"/><polygon class="cls-2" points="210.7 606.82 227.56 577.5 244.88 606.82 227.79 630 210.7 606.82"/><polygon class="cls-2" points="246.76 606.82 263.61 577.5 280.94 606.82 263.85 630 246.76 606.82"/><polygon class="cls-2" points="280.94 606.82 297.8 577.5 315.12 606.82 298.03 630 280.94 606.82"/><polygon class="cls-2" points="316.99 606.82 333.85 577.5 351.17 606.82 334.08 630 316.99 606.82"/><polygon class="cls-2" points="351.17 606.82 368.03 577.5 385.36 606.82 368.26 630 351.17 606.82"/><polygon class="cls-2" points="387.23 606.82 404.08 577.5 421.41 606.82 404.32 630 387.23 606.82"/><polygon class="cls-2" points="421.41 606.82 438.26 577.5 455.59 606.82 438.5 630 421.41 606.82"/><polygon class="cls-2" points="457.46 606.82 474.32 577.5 491.64 606.82 474.55 630 457.46 606.82"/><polygon class="cls-2" points="491.64 606.82 508.5 577.5 525.82 606.82 508.73 630 491.64 606.82"/><polygon class="cls-2" points="527.7 606.82 544.55 577.5 561.88 606.82 544.79 630 527.7 606.82"/><polygon class="cls-2" points="561.88 606.82 578.73 577.5 596.06 606.82 578.97 630 561.88 606.82"/><polygon class="cls-2" points="0 659.32 16.86 630 34.18 659.32 17.09 682.5 0 659.32"/><polygon class="cls-2" points="36.05 659.32 52.91 630 70.23 659.32 53.14 682.5 36.05 659.32"/><polygon class="cls-2" points="70.23 659.32 87.09 630 104.42 659.32 87.33 682.5 70.23 659.32"/><polygon class="cls-2" points="106.29 659.32 123.14 630 140.47 659.32 123.38 682.5 106.29 659.32"/><polygon class="cls-2" points="140.47 659.32 157.33 630 174.65 659.32 157.56 682.5 140.47 659.32"/><polygon class="cls-2" points="176.52 659.32 193.38 630 210.7 659.32 193.61 682.5 176.52 659.32"/><polygon class="cls-2" points="210.7 659.32 227.56 630 244.88 659.32 227.79 682.5 210.7 659.32"/><polygon class="cls-2" points="246.76 659.32 263.61 630 280.94 659.32 263.85 682.5 246.76 659.32"/><polygon class="cls-2" points="280.94 659.32 297.8 630 315.12 659.32 298.03 682.5 280.94 659.32"/><polygon class="cls-2" points="316.99 659.32 333.85 630 351.17 659.32 334.08 682.5 316.99 659.32"/><polygon class="cls-2" points="351.17 659.32 368.03 630 385.36 659.32 368.26 682.5 351.17 659.32"/><polygon class="cls-2" points="387.23 659.32 404.08 630 421.41 659.32 404.32 682.5 387.23 659.32"/><polygon class="cls-2" points="421.41 659.32 438.26 630 455.59 659.32 438.5 682.5 421.41 659.32"/><polygon class="cls-2" points="457.46 659.32 474.32 630 491.64 659.32 474.55 682.5 457.46 659.32"/><polygon class="cls-2" points="491.64 659.32 508.5 630 525.82 659.32 508.73 682.5 491.64 659.32"/><polygon class="cls-2" points="527.7 659.32 544.55 630 561.88 659.32 544.79 682.5 527.7 659.32"/><polygon class="cls-2" points="561.88 659.32 578.73 630 596.06 659.32 578.97 682.5 561.88 659.32"/><polygon class="cls-2" points="0 711.82 16.86 682.5 34.18 711.82 17.09 735 0 711.82"/><polygon class="cls-2" points="36.05 711.82 52.91 682.5 70.23 711.82 53.14 735 36.05 711.82"/><polygon class="cls-2" points="70.23 711.82 87.09 682.5 104.42 711.82 87.33 735 70.23 711.82"/><polygon class="cls-2" points="106.29 711.82 123.14 682.5 140.47 711.82 123.38 735 106.29 711.82"/><polygon class="cls-2" points="140.47 711.82 157.33 682.5 174.65 711.82 157.56 735 140.47 711.82"/><polygon class="cls-2" points="176.52 711.82 193.38 682.5 210.7 711.82 193.61 735 176.52 711.82"/><polygon class="cls-2" points="210.7 711.82 227.56 682.5 244.88 711.82 227.79 735 210.7 711.82"/><polygon class="cls-2" points="246.76 711.82 263.61 682.5 280.94 711.82 263.85 735 246.76 711.82"/><polygon class="cls-2" points="280.94 711.82 297.8 682.5 315.12 711.82 298.03 735 280.94 711.82"/><polygon class="cls-2" points="316.99 711.82 333.85 682.5 351.17 711.82 334.08 735 316.99 711.82"/><polygon class="cls-2" points="351.17 711.82 368.03 682.5 385.36 711.82 368.26 735 351.17 711.82"/><polygon class="cls-2" points="387.23 711.82 404.08 682.5 421.41 711.82 404.32 735 387.23 711.82"/><polygon class="cls-2" points="421.41 711.82 438.26 682.5 455.59 711.82 438.5 735 421.41 711.82"/><polygon class="cls-2" points="457.46 711.82 474.32 682.5 491.64 711.82 474.55 735 457.46 711.82"/><polygon class="cls-2" points="491.64 711.82 508.5 682.5 525.82 711.82 508.73 735 491.64 711.82"/><polygon class="cls-2" points="527.7 711.82 544.55 682.5 561.88 711.82 544.79 735 527.7 711.82"/><polygon class="cls-2" points="561.88 711.82 578.73 682.5 596.06 711.82 578.97 735 561.88 711.82"/><polygon class="cls-2" points="0 764.32 16.86 735 34.18 764.32 17.09 787.5 0 764.32"/><polygon class="cls-2" points="36.05 764.32 52.91 735 70.23 764.32 53.14 787.5 36.05 764.32"/><polygon class="cls-2" points="70.23 764.32 87.09 735 104.42 764.32 87.33 787.5 70.23 764.32"/><polygon class="cls-2" points="106.29 764.32 123.14 735 140.47 764.32 123.38 787.5 106.29 764.32"/><polygon class="cls-2" points="140.47 764.32 157.33 735 174.65 764.32 157.56 787.5 140.47 764.32"/><polygon class="cls-2" points="176.52 764.32 193.38 735 210.7 764.32 193.61 787.5 176.52 764.32"/><polygon class="cls-2" points="210.7 764.32 227.56 735 244.88 764.32 227.79 787.5 210.7 764.32"/><polygon class="cls-2" points="246.76 764.32 263.61 735 280.94 764.32 263.85 787.5 246.76 764.32"/><polygon class="cls-2" points="280.94 764.32 297.8 735 315.12 764.32 298.03 787.5 280.94 764.32"/><polygon class="cls-2" points="316.99 764.32 333.85 735 351.17 764.32 334.08 787.5 316.99 764.32"/><polygon class="cls-2" points="351.17 764.32 368.03 735 385.36 764.32 368.26 787.5 351.17 764.32"/><polygon class="cls-2" points="387.23 764.32 404.08 735 421.41 764.32 404.32 787.5 387.23 764.32"/><polygon class="cls-2" points="421.41 764.32 438.26 735 455.59 764.32 438.5 787.5 421.41 764.32"/><polygon class="cls-2" points="457.46 764.32 474.32 735 491.64 764.32 474.55 787.5 457.46 764.32"/><polygon class="cls-2" points="491.64 764.32 508.5 735 525.82 764.32 508.73 787.5 491.64 764.32"/><polygon class="cls-2" points="527.7 764.32 544.55 735 561.88 764.32 544.79 787.5 527.7 764.32"/><polygon class="cls-2" points="561.88 764.32 578.73 735 596.06 764.32 578.97 787.5 561.88 764.32"/><polygon class="cls-2" points="0 816.82 16.86 787.5 34.18 816.82 17.09 840 0 816.82"/><polygon class="cls-2" points="36.05 816.82 52.91 787.5 70.23 816.82 53.14 840 36.05 816.82"/><polygon class="cls-2" points="70.23 816.82 87.09 787.5 104.42 816.82 87.33 840 70.23 816.82"/><polygon class="cls-2" points="106.29 816.82 123.14 787.5 140.47 816.82 123.38 840 106.29 816.82"/><polygon class="cls-2" points="140.47 816.82 157.33 787.5 174.65 816.82 157.56 840 140.47 816.82"/><polygon class="cls-2" points="176.52 816.82 193.38 787.5 210.7 816.82 193.61 840 176.52 816.82"/><polygon class="cls-2" points="210.7 816.82 227.56 787.5 244.88 816.82 227.79 840 210.7 816.82"/><polygon class="cls-2" points="246.76 816.82 263.61 787.5 280.94 816.82 263.85 840 246.76 816.82"/><polygon class="cls-2" points="280.94 816.82 297.8 787.5 315.12 816.82 298.03 840 280.94 816.82"/><polygon class="cls-2" points="316.99 816.82 333.85 787.5 351.17 816.82 334.08 840 316.99 816.82"/><polygon class="cls-2" points="351.17 816.82 368.03 787.5 385.36 816.82 368.26 840 351.17 816.82"/><polygon class="cls-2" points="387.23 816.82 404.08 787.5 421.41 816.82 404.32 840 387.23 816.82"/><polygon class="cls-2" points="421.41 816.82 438.26 787.5 455.59 816.82 438.5 840 421.41 816.82"/><polygon class="cls-2" points="457.46 816.82 474.32 787.5 491.64 816.82 474.55 840 457.46 816.82"/><polygon class="cls-2" points="491.64 816.82 508.5 787.5 525.82 816.82 508.73 840 491.64 816.82"/><polygon class="cls-2" points="527.7 816.82 544.55 787.5 561.88 816.82 544.79 840 527.7 816.82"/><polygon class="cls-2" points="561.88 816.82 578.73 787.5 596.06 816.82 578.97 840 561.88 816.82"/></svg>