<svg xmlns="http://www.w3.org/2000/svg" viewBox="0 0 1942.57 221.93"><defs><style>.cls-1{fill:#c9e2c3;}.cls-2,.cls-4{fill:#f5f9ef;}.cls-3{fill:#98a687;}.cls-4{stroke:#6f7565;}.cls-10,.cls-4,.cls-5,.cls-7{stroke-miterlimit:10;}.cls-10,.cls-5,.cls-6,.cls-9{fill:none;}.cls-10,.cls-5,.cls-6,.cls-7{stroke:#98a687;}.cls-6{stroke-linejoin:round;}.cls-11,.cls-7{fill:#f5f8eb;}.cls-10,.cls-7{stroke-linecap:round;}.cls-8{fill:#cce3bf;}</style></defs><g id="Capa_2" data-name="Capa 2"><g id="Capa_1-2" data-name="Capa 1"><path class="cls-1" d="M116.72,86.22c-1.29-.37-1.21,1.34-2.3.55a10.9,10.9,0,0,0-7.19-2c-2.08.18-4.43.9-6.11-.35a11.39,11.39,0,0,1-1.45-1.57,7.4,7.4,0,0,0-4.54-2.38,8.54,8.54,0,0,1-2.25-.37c-1.64-.68-2.41-2.86-4.15-3.25A3.14,3.14,0,0,0,86,77.8a9.56,9.56,0,0,0-1.67,2.48,5.24,5.24,0,0,1-1.94-2.37A3.22,3.22,0,0,0,80.08,76a5.4,5.4,0,0,0-1.25,1.86,1.84,1.84,0,0,0,.52,2c.28.2.64.3.83.58s.06,1-.3,1.42a5,5,0,0,0-1,1.18,2.67,2.67,0,0,0,.09,1.8,3.3,3.3,0,0,0,1,1.88,3.35,3.35,0,0,0,1.46.47q6.17,1,12.38,1.6a18.06,18.06,0,0,1,2.54.36c.76.18,1.5.46,2.25.68,3.79,1.15,7.84,1,11.79.84a15.82,15.82,0,0,0,6.42-1.17c.21-.11,0-.63.29-1.12a1.7,1.7,0,0,0-.08-1.79Z"/><path class="cls-1" d="M211.5,101.46a40.33,40.33,0,0,1-5.17-3.3,25.22,25.22,0,0,0-14.06-4.08c-2.26,0-4.82.28-6.48-1.25a16.83,16.83,0,0,1-2-3.1c-1.87-2.79-5.51-4-8.87-3.8s-6.57,1.37-9.77,2.43a104,104,0,0,1-10.42,2.82,109.09,109.09,0,0,1-12.08,1.87,34.81,34.81,0,0,1-6.29.17c-2-.17-4.09-.65-6.09-.26s-4,2-3.86,4.05a2.63,2.63,0,0,0,.68,1.67,4.72,4.72,0,0,0,3,1.15l11.94,1.76a30.36,30.36,0,0,1,4,.78c2.75.8,5.28,2.39,8.12,2.74a5.09,5.09,0,0,0,3.8-.8,2.69,2.69,0,0,0,.73-3.53c-.57-.76-1.56-1-2.33-1.61s-1.27-1.79-.55-2.4,1.78,0,2.62.47a6,6,0,0,0,6.19-.37,7,7,0,0,1,1.8-1.15,4,4,0,0,1,2.08.07c5.42,1.25,10.14,4.59,15.46,6.21a7.06,7.06,0,0,1,2,.81,11.45,11.45,0,0,1,1.18,1c2.32,2,5.71,1.91,8.78,2,9.32.24,18.5,3,27.81,2.57a2.89,2.89,0,0,0,1.93-.58c2-1.92-4.12-4-5.23-4.23C217.41,102.86,214.29,102.73,211.5,101.46Z"/><path class="cls-2" d="M99.71,111.65l-10.08-.56a4.49,4.49,0,0,0-2.81.47c-.86.61-1.18,1.77-2,2.47-1.88,1.68-4.71,0-6.88-1.31s-6-1.21-6.07,1.3,4.59,4.59,2.93,6.6c-6,1.15-12.16.14-18.18-.86l-29-4.87c-3-.51-6.23-1.09-8.58-3.07-1.06-.89-1.89-2-2.89-3-2.78-2.62-6.7-3.68-9.78-6C.14,98.32-1.4,88.58,3.07,82.31c2.38-3.34,6.71-4,10.65-6.13,1.73-.92,2.32-2.36,4-3.41,2.4-1.52,4.7-.51,7.3-.85a2.94,2.94,0,0,0,1.57-.71c2.2-2,5.43-2.62,5.36-5.57a22.69,22.69,0,0,1,1.41-3.31,7.53,7.53,0,0,1,2.33-2.58c3.28-2,6.71-4,10.52-4.36.8-.07,1.61-.07,2.4-.19,1-.16,2-.53,3.08-.79a16.81,16.81,0,0,1,9.78.42,12.1,12.1,0,0,1,3,1.47,18,18,0,0,0,3.3,2.29,3.23,3.23,0,0,0,3.33-.53c1.73-1.54,4.88-1.46,7.11-.84a10.07,10.07,0,0,1,4.26,2.84,7.14,7.14,0,0,1,1.89,2.79c.39,1.28.2,2.83,1.14,3.78a4.21,4.21,0,0,0,2.92.86,2.6,2.6,0,0,0,1.24-.16,4.17,4.17,0,0,0,.89-.74,4.84,4.84,0,0,1,3.91-1A11.33,11.33,0,0,1,98.32,67a5.8,5.8,0,0,0,2.41.93,2.38,2.38,0,0,0,2-1.09c.66-1.12,1.12-2.34,1.87-3.41a4,4,0,0,1,2.29-1.56,29.13,29.13,0,0,1,7.53-1.53,4.05,4.05,0,0,0,2.5-.48,3.45,3.45,0,0,0,1-1.94,44.83,44.83,0,0,0,1.8-9.07c.06-1,.06-2,.2-3.06.61-4.38,3.91-7.93,7.6-10.35A29.93,29.93,0,0,0,130.31,34c2.63-2.18,5.67-4.06,9.06-4.47,1.06-.13,2.13-.11,3.2-.16a53.66,53.66,0,0,0,7.46-1,11.86,11.86,0,0,0,3.33-.93c2.31-1.15,3.61-3.6,5.18-5.65a21.6,21.6,0,0,1,12.59-8c4.82-1,9.75-3,14.66-3.43a31,31,0,0,1,6.74-.09A10.31,10.31,0,0,1,198.58,13a18,18,0,0,0,2,2c.83.6.71,1.84,1.37,2.62,2.24,2.66,5.61,4.25,7.51,7.16a14.49,14.49,0,0,1,1.75,4.2,2.15,2.15,0,0,0,1,1.35c2.6,1.35,6-.27,8.9-.34,2.53-.06,5.24-.08,7.37,1.31a12.36,12.36,0,0,1,2.94,3l6.3,8.21a11.62,11.62,0,0,1,1.82,3.19,2,2,0,0,1,.15,1,1.07,1.07,0,0,1-.87,1c-.3,0-.63-.12-.91,0a.87.87,0,0,0-.35.36c-.82,1.42.14,3.21,1.27,4.4s2.53,2.36,2.72,4c.06.5.21,1.21.7,1.12a7.85,7.85,0,0,1-.16,3.71,2.56,2.56,0,0,1-2.89,1.62,2.18,2.18,0,0,0-.69-.2c-.53,0-.86.6-.88,1.12s.15,1,.12,1.55c-.08,1.34-1.41,2.19-2.55,2.87a41.89,41.89,0,0,0-5.74,4.15,2.62,2.62,0,0,0-.86,1.07,1.42,1.42,0,0,0,1.87,1.62l.29,1.86a2.72,2.72,0,0,0,2.75-1.11,10.44,10.44,0,0,1,4.75-4c2-.86,4.23-1.34,6.23-2.3a26.88,26.88,0,0,1,4-1.9c2.93-.87,6.17.3,8.52,2.26a28.15,28.15,0,0,1,5.6,7.24,2.87,2.87,0,0,1,.6,1.92c-.21,1.16-1.78,1.75-1.16,3.34a2.27,2.27,0,0,0,1.86,1.41c3.83.44,8.06,1.29,10,4.59a1.78,1.78,0,0,0,.48.61,1.57,1.57,0,0,0,.86.21,9.74,9.74,0,0,0,4.61-.67c.63-.29,1.2-.67,1.8-1a27.72,27.72,0,0,1,4.83-2c1.73-.59,3.62-1.19,5.33-.56,2.25.83,3.56,3.57,5.93,3.86a14.55,14.55,0,0,0,2.47,0c1.61-.07,2.2-.36,3,.18a15.7,15.7,0,0,1,4.34,5.43A13.23,13.23,0,0,1,308.75,98l1.2,0c1.94,4.28,6.05,7.9,10.68,8.66,6.38,1,13-2.29,19.25-.56,2.34.66,4.47,2,6.87,2.34a20.3,20.3,0,0,0,4.86-.14A52.45,52.45,0,0,1,369,109.64c1.23.3,2.65.83,2.83,2.16a2.2,2.2,0,0,1-.79,1.89,5.74,5.74,0,0,1-3.48,1.09,12.35,12.35,0,0,1-4.16-.11,13.7,13.7,0,0,0-2.71-.71,7.82,7.82,0,0,0-2.54.55,17.26,17.26,0,0,1-11.6-.55c-1.61-.67-3.19-1.6-4.94-1.64l0,1.34c1.28.15,3,.79,2.65,2.11a1.85,1.85,0,0,1-2.17,1.29c-3.33-.59-6.43,1-9.69,1.35-6.62.67-13.09-4-19.6-2.65-2.27.47-4.45,1.65-6.76,1.4s-4.22-1.87-6.42-2.63a18.38,18.38,0,0,0-6.37-.59c-5.15.11-10.3,0-15.46,0l-12.44-.19c-.54-1.12.61-2.37,1.76-2.87a7,7,0,0,1,3.69-.22,10.53,10.53,0,0,1,4.41-3.6c1.16-.38,2.7-.6,3-1.79a1.86,1.86,0,0,0-.94-1.9,5.19,5.19,0,0,0-2.17-.58,2.88,2.88,0,0,0-1.17,0c-1,.28-1.46,1.47-2.35,2a4.28,4.28,0,0,1-2,.48c-2,.16-4.08.3-5.85-.6-1.42-.71-2.51-2-4-2.49a2,2,0,0,0-1.37,0,3.4,3.4,0,0,0-1.08,1,8.24,8.24,0,0,1-5.1,2.5,16.43,16.43,0,0,1-5.75-.43,13,13,0,0,1-2.93-1c-.94-.45-1.79-1.08-2.74-1.52A12.24,12.24,0,0,0,235,102a7.32,7.32,0,0,0-3.1.66,3,3,0,0,0-1.7,2.51,9.15,9.15,0,0,1-2.5,1.44c-3,1.1-6.11,2.23-9.27,1.9-1-.1-1.88-.33-2.81-.51-1.89-.38-3.8-.58-5.71-.78l-6.09-.64c-3.47-.36-6.94-.73-10.43-.79a1.12,1.12,0,0,0-1.16,1.13,2.79,2.79,0,0,0,1,1.71,21.45,21.45,0,0,0,2.9,2.31,4.5,4.5,0,0,1,1.28,1,3.16,3.16,0,0,1,.44,2.31,3.57,3.57,0,0,1-1.3,2.45c-1.33.94-3.16.36-4.79.46a18.76,18.76,0,0,0-2.84.56c-3.75.78-7.6-.14-11.39-.69a115.61,115.61,0,0,0-17.46-.72,32.71,32.71,0,0,0-8.62.86,35.74,35.74,0,0,1-4.37,1.28,16.52,16.52,0,0,1-3.72,0,6,6,0,0,1-3.54-1,10.41,10.41,0,0,1-1.67-2.35,2.62,2.62,0,0,0-2.37-1.38c-5.33-.28-9.88,1.83-15.21,1.52a8.36,8.36,0,0,1-2.06-.33c-2.94-.93-4.53-4-6.86-6a21.51,21.51,0,0,0-6.11-3.31,1.2,1.2,0,0,0-1.16-.06.9.9,0,0,0-.31.75c0,1.48,1.5,2.9.86,4.24a2.67,2.67,0,0,1-2.35,1.14A20.61,20.61,0,0,1,99.71,111.65Z"/><path class="cls-3" d="M64.14,76.18a32.5,32.5,0,0,1,9.71,3.5,33.3,33.3,0,0,1,4.23,3,50.62,50.62,0,0,1,3.72,3.57,5,5,0,0,0,2,1.23,10.86,10.86,0,0,0,2.42.35l5.13.37,2.56.18a8.61,8.61,0,0,1,2.67.48,14.17,14.17,0,0,0,2.28,1,11.16,11.16,0,0,0,2.43.28,69.26,69.26,0,0,0,10.18-.45,14.82,14.82,0,0,1,5.28-.08,7.84,7.84,0,0,1,1.27.45,1.26,1.26,0,0,0,.92.08c.61-.18,1.2-.89,2-1.36a8,8,0,0,1,5.3-.86,19,19,0,0,1,5,1.52,46,46,0,0,0,4.65,2.12,10.08,10.08,0,0,0,5,.62,9.79,9.79,0,0,1-5.15-.12,49.29,49.29,0,0,1-4.88-1.7A18.34,18.34,0,0,0,126.1,89a7,7,0,0,0-4.65.73,13.82,13.82,0,0,1-2.24,1.46,2.28,2.28,0,0,1-1.58-.11,7.31,7.31,0,0,0-1.15-.41,14.16,14.16,0,0,0-4.93.1,69.79,69.79,0,0,1-10.32.46,11.71,11.71,0,0,1-2.66-.32,15.09,15.09,0,0,1-2.4-1.06,7.62,7.62,0,0,0-2.36-.41l-2.57-.19-5.12-.36a12,12,0,0,1-2.65-.39A6,6,0,0,1,81.12,87c-1.26-1.26-2.37-2.45-3.68-3.54a33,33,0,0,0-4.11-2.94A35,35,0,0,0,64.14,76.18Z"/><path class="cls-3" d="M135,99.57a9.1,9.1,0,0,0,2.87.51,17.22,17.22,0,0,0,2.88.22,24.83,24.83,0,0,1,6,.4,7.52,7.52,0,0,1,2.87,1.33,11.49,11.49,0,0,1,1.11,1.07,1.94,1.94,0,0,0,1,.59,3.65,3.65,0,0,0,2.48-.6c.83-.33,1.77-.82,1.88-1.85a1.78,1.78,0,0,1-.28,1.53,5,5,0,0,1-1.1,1.19,4.64,4.64,0,0,1-3.19.71,3.05,3.05,0,0,1-1.52-.85,9.51,9.51,0,0,0-1-1,6.46,6.46,0,0,0-2.49-1.15,24.64,24.64,0,0,0-5.81-.37,19.63,19.63,0,0,1-3-.23A7,7,0,0,1,135,99.57Z"/><path class="cls-3" d="M156,95.6c1.45,1.08,3.25,1,4.93.81.42,0,.91,0,1.22-.08s.31-.11.55-.61a1.61,1.61,0,0,1,.61-.69,3,3,0,0,1,.71-.31,10.52,10.52,0,0,1,1.34-.34,11,11,0,0,1,5.44.35,18.63,18.63,0,0,1,4.72,2.6,48.08,48.08,0,0,0,4.31,2.92,9.51,9.51,0,0,0,4.78,1.33,9.06,9.06,0,0,1,2.74.41,8.19,8.19,0,0,1,2.45,1.32,10,10,0,0,1,1.73,2.12,9.08,9.08,0,0,0,.72,1.07,1.78,1.78,0,0,0,1.05.68,1.89,1.89,0,0,1-1.25-.48,10.62,10.62,0,0,1-.94-1,9,9,0,0,0-1.92-1.64,7.28,7.28,0,0,0-2.16-1.16,7.85,7.85,0,0,0-2.45-.36,10.56,10.56,0,0,1-5.23-1.46,47.82,47.82,0,0,1-4.41-3,17.59,17.59,0,0,0-4.45-2.47,10,10,0,0,0-4.95-.32,10.22,10.22,0,0,0-1.21.31,2.35,2.35,0,0,0-.49.2.6.6,0,0,0-.24.29,2.72,2.72,0,0,1-.4.68,1.53,1.53,0,0,1-.83.47,9.25,9.25,0,0,1-1.41.11,11.67,11.67,0,0,1-2.68-.41A4.52,4.52,0,0,1,156,95.6Z"/><path class="cls-4" d="M227.68,131.17c-3.42-.11-6.83,1.29-10.22.77-4-.61-7.18-3.75-11.14-4.46-1.12-.2-2.26-.2-3.37-.45a7.68,7.68,0,0,1-3.41-1.78,2,2,0,0,1-.84-1.91,1.84,1.84,0,0,1,1.12-1,5,5,0,0,1,3.38-.22,12.26,12.26,0,0,0,1.56.49c1.43.26,2.81-.56,4.12-1.21a21.82,21.82,0,0,1,15-1.6,1.09,1.09,0,0,1,.6.29c.41.45,0,1.18.12,1.76.25.91,1.57.79,2.48.52a21.68,21.68,0,0,1,5.71-.91c6.48-.17,12.65,2.51,18.57,5.14a4.09,4.09,0,0,1,1.19.71,2.61,2.61,0,0,1,.43,2.83,5.64,5.64,0,0,1-2,2.25,14,14,0,0,1-11.72,2.11c-1.52-.41-2.79-1.34-4.3-1.79A29.22,29.22,0,0,0,227.68,131.17Z"/><path class="cls-1" d="M220.48,30.41c3.06-.58,5.61-1,8,.94s4.79,6.29,6.53,8.87l3.77,5.59c.24.34.47.8.23,1.14s-.6.28-.91.42c-.77.35-.83,1.42-.68,2.25a10.49,10.49,0,0,0,1.72,4.12c1.29,1.85,3.26,3.52,3.23,5.77a3.72,3.72,0,0,1-3.49,3.54c-.4,0-.88,0-1.14.28a1.52,1.52,0,0,0-.22.85c-.17,1.82-1.64,3.2-3,4.38C231.78,70.82,229,73,226.06,75c-1.43,1-3.1,2-4.81,1.66-1.95-.4-3.11-2.36-4.74-3.5-2.13-1.48-5-1.47-7.53-1.06s-5.12,1.19-7.71,1c-1.48-.11-1.93.57-3.41.53a6.93,6.93,0,0,0-4.61,1.68c-1,.69-3.61.49-4.8.63a5.1,5.1,0,0,1-2.67-.65,12.28,12.28,0,0,1-4.62-3c-.65-.78-2.16-.48-2.91-1.15-1.3-1.14-1.92-1.83-3.65-1.89-2.37-.08-5-.83-7.34-.91a2.69,2.69,0,0,1,1.34-1.72,21.72,21.72,0,0,1,9.64-3.72c1.49-.19,3.21-.14,4.21,1a15.91,15.91,0,0,0,1.28,1.74,4,4,0,0,0,1.9.73l4.13.82c2.12.42,4.49.8,6.32-.34,2.34-1.46,2.74-4.64,2.8-7.4a3.14,3.14,0,0,1,.27-1.49,2.62,2.62,0,0,1,1.34-1.08,7.17,7.17,0,0,1,6.58.5A15.21,15.21,0,0,0,209.61,59a2.13,2.13,0,0,0,2.67-.7c.37-.72.11-1.69.62-2.32a2,2,0,0,1,1.48-.58c2.62-.17,5.44,1.16,7.75-.08a5.22,5.22,0,0,0,2.43-3.64,15.49,15.49,0,0,0,0-4.51L224.1,42a5.07,5.07,0,0,0-.85-2.84c-1.42-1.72-4.17-.89-6.36-1.3-1.53-.29-5.88-5.42-4.62-7.41.48-.74,3,.61,3.74.42C217.57,30.42,218.89,30.72,220.48,30.41Z"/><path class="cls-1" d="M269.2,84.91c-.79-.19-1.55.21-2.37-.26-1.73-1-3.51-.71-5.38-1.32-2.64-.86-5.43-2.39-8.25-2.18a16.32,16.32,0,0,0-5.2,1.59l-3.92,1.7a6.42,6.42,0,0,1-2.36.66c-2,0-3.45-1.9-5.24-2.84a11.78,11.78,0,0,0-5-1l-6.15-.32a6.88,6.88,0,0,0-2.35.15,2.33,2.33,0,0,0-1.64,1.55,1.09,1.09,0,0,0,.24,1,1.49,1.49,0,0,0,.85.28,8.48,8.48,0,0,0,2.88-.23,9.29,9.29,0,0,1,2.87-.55,12.45,12.45,0,0,1,2.29.66,29.29,29.29,0,0,1,3.61.76,8.42,8.42,0,0,1,1.7,1.08l4.72,3.6a10,10,0,0,0,4.79,2.43c1.54.16,3.09-.4,4.62-.19a12.28,12.28,0,0,1,2.22.65c3.68,1.31,8.86,3.87,12.73,4.37,1.52.2,3.19-1.65,4.71-1.84s1.61-.81,2.57-2C274.6,89.69,272.53,85.74,269.2,84.91Z"/><path class="cls-3" d="M162.55,68.9a53.28,53.28,0,0,1,8.58-.65,20.71,20.71,0,0,1,8.37,2.31,18.28,18.28,0,0,1,3.58,2.51,7.48,7.48,0,0,0,3.36,2.13,8.77,8.77,0,0,0,4-.23,36.34,36.34,0,0,0,3.94-1.41c.67-.26,1.3-.5,2-.82a4.88,4.88,0,0,1,2.31-.47,9.4,9.4,0,0,1,2.17.59,7.33,7.33,0,0,0,2,.39,7.5,7.5,0,0,0,3.87-.8c.6-.3,1.19-.7,1.85-1a4.57,4.57,0,0,1,2.27-.66,5.49,5.49,0,0,1,2.2.71,5.43,5.43,0,0,0,1.93.4,4.63,4.63,0,0,1,2.21.75,20,20,0,0,0,1.77,1.1c2.37,1.39,5.31,1.62,8.12,1.9-2.82.12-5.78.19-8.57-1a14.22,14.22,0,0,1-1.85-1.14,3.59,3.59,0,0,0-1.79-.61,6.42,6.42,0,0,1-2.23-.47,4.52,4.52,0,0,0-1.81-.63c-1.19,0-2.33.92-3.64,1.6a8.48,8.48,0,0,1-4.39.91,8.33,8.33,0,0,1-2.22-.44,8.65,8.65,0,0,0-1.93-.55c-1.18-.11-2.44.78-3.81,1.22a36.12,36.12,0,0,1-4.09,1.46,9.56,9.56,0,0,1-4.46.23,6,6,0,0,1-2.11-1,21.85,21.85,0,0,1-1.68-1.4A17,17,0,0,0,179,71.44a19.53,19.53,0,0,0-8-2.19A66.53,66.53,0,0,0,162.55,68.9Z"/><path class="cls-1" d="M303.65,92.1c-1.08-.1-1.94,1-2.19,2s-.12,2.16-.33,3.21c-.58,2.77-3.36,4.47-6,5.42-1.93.7-4.15,1.36-5.11,3.17a2.15,2.15,0,0,0-.27,1.11,2,2,0,0,0,1.87,1.58,7.75,7.75,0,0,0,2.6-.43,16.16,16.16,0,0,1,5.45-.44,20.77,20.77,0,0,0,3.6.26c.86-.07,1.7-.32,2.57-.39,1.92-.15,3.78.58,5.63,1.1a50.18,50.18,0,0,0,9.46,1.36c.86.07,1.95,0,2.25-.81a1.4,1.4,0,0,0-.61-1.54,5.07,5.07,0,0,0-1.67-.61,16.28,16.28,0,0,1-5.92-2.9,32.59,32.59,0,0,1-3.46-3.29c-.47-.49-1.09-2.34-1.56-2.83-.71-.75-1.26-.13-2-.88-.47-.49,0-2-.38-2.75A4.74,4.74,0,0,0,303.65,92.1Z"/><path class="cls-3" d="M245.48,90.87a22.1,22.1,0,0,1,3.83-.2,13.8,13.8,0,0,1,1.9.45,11.8,11.8,0,0,0,1.74.49c1.14.19,2.39,0,3.72.12a6.15,6.15,0,0,1,2,.46,11.89,11.89,0,0,1,1.73.93,10.07,10.07,0,0,0,3.2,1.56,6.07,6.07,0,0,0,3.37-.66,22.53,22.53,0,0,0,3.33-1.55,7.81,7.81,0,0,0,3-2.13,7.52,7.52,0,0,1-2.45,3A23.26,23.26,0,0,1,267.3,95a15.26,15.26,0,0,1-1.84.63,4.85,4.85,0,0,1-2.08.08A10.91,10.91,0,0,1,259.85,94a6.77,6.77,0,0,0-3.26-1.24c-1.18-.1-2.46.08-3.8-.13a15,15,0,0,1-1.88-.52,11.86,11.86,0,0,0-1.76-.42C248,91.3,246.73,91.12,245.48,90.87Z"/><path class="cls-1" d="M94.41,106.73c-.39-.59-.6-1.3-1-1.89a3.31,3.31,0,0,0-3.26-1.34,8.71,8.71,0,0,1-1.94.41c-1.19-.06-2-1.2-3-1.85a8.14,8.14,0,0,0-4.64-.87l-5.37.08a3.85,3.85,0,0,1-1.66-.22,5.08,5.08,0,0,1-1.38-1.16,8.49,8.49,0,0,0-13.86,2.79,17,17,0,0,0-.88,6.23,23.17,23.17,0,0,0-1.86-1.4c-3.44-2.29-7.76-2.84-11.89-2.76a25.58,25.58,0,0,1-6.49-.3c-2.71-.67-5.29-2.5-8-2a1.66,1.66,0,0,0-.22,1.77,2.75,2.75,0,0,0,.76.87c3.44,2.88,8.28,3.2,12.76,3.39l6.86.3A4.91,4.91,0,0,1,51,109a5.19,5.19,0,0,1,1.25.82,38.39,38.39,0,0,0,8.94,5.93c3.31,1.4,7.16,1.88,10.48.52.83-1.14-.71-3,.14-4.08a1.94,1.94,0,0,1,1.48-.62c2.29-.1,4.33,1.32,6.44,2.2s5,1,6.26-.88a3.5,3.5,0,0,1,.85-1.18,2.35,2.35,0,0,1,1.2-.27c2,0,3.91,0,5.86,0,1.35.06,4.54,1,5.71.34C102.32,110.44,95.13,107.78,94.41,106.73Z"/><path class="cls-3" d="M287.28,108c1.4-.71,2.83-1.33,4.24-2a13.71,13.71,0,0,1,2.33-.64,4.79,4.79,0,0,1,2.54.25c1.57.59,2.79,1.65,4.14,1.8s2.62-.8,4.18-1.35a8.8,8.8,0,0,1,4.88,0c1.56.38,3,1,4.47,1.48s2.94,1.12,4.36,1.51a5.63,5.63,0,0,0,2.14.39,4.47,4.47,0,0,0,2.14-.69,4.21,4.21,0,0,1-2.06,1.21,6.42,6.42,0,0,1-2.47.06c-1.57-.43-3-1-4.45-1.54s-2.91-1.09-4.37-1.45a7.74,7.74,0,0,0-4.32,0c-.68.23-1.35.6-2.1.92a4.87,4.87,0,0,1-2.51.47c-1.79-.24-3-1.38-4.37-1.85s-2.74-.12-4.2.41C290.33,107.26,288.82,107.64,287.28,108Z"/><path class="cls-5" d="M334.89,112.69a47.94,47.94,0,0,0,4.94.07"/><path class="cls-3" d="M204.43,99.24c-.68,0-1.35,0-2,0a5.39,5.39,0,0,0-1.75-.24c-1.12,0-2.11.81-3.24,1.51a5,5,0,0,1-2,.77,3.21,3.21,0,0,1-2.17-.5,5.14,5.14,0,0,1-1.5-1.51,9.7,9.7,0,0,1-.51-2,16.5,16.5,0,0,0,1.34,1.41,4.11,4.11,0,0,0,1.2,1.22,2.71,2.71,0,0,0,3.1-.28c.53-.32,1.06-.7,1.66-1a4.56,4.56,0,0,1,2-.62,7.32,7.32,0,0,1,2.06.26A17.81,17.81,0,0,1,204.43,99.24Z"/><path class="cls-3" d="M70.3,107.29c-.57.15-1.12.25-1.62.42a3,3,0,0,0-1.37.32c-.41.19-.63.54-1.11,1a2.89,2.89,0,0,1-1.78.72,6.68,6.68,0,0,1-3.51-.27,3.91,3.91,0,0,1-1.45-1.16,3,3,0,0,1-.27-1.79,3.55,3.55,0,0,0,1.06,1.17,3.06,3.06,0,0,0,1.08.88,5.83,5.83,0,0,0,3,.18,2,2,0,0,0,1.22-.46c.16-.15.33-.36.54-.58a3,3,0,0,1,.78-.59,4.37,4.37,0,0,1,1.8-.44A6.18,6.18,0,0,1,70.3,107.29Z"/><path class="cls-3" d="M28.53,102.36a8.62,8.62,0,0,0,4.56,2.88c.84.35,1.71.68,2.59,1a12.1,12.1,0,0,0,2.6.66c1.77.2,3.68.08,5.53.11l5.6,0a5.31,5.31,0,0,1,1.54.16,3.67,3.67,0,0,1,1.34.84,7.29,7.29,0,0,0,2.36,1.13,7.16,7.16,0,0,1,1.36.62,9.26,9.26,0,0,1,1.18.92,16.14,16.14,0,0,0,2.08,1.77,12.85,12.85,0,0,0,4.93,2.06,13.56,13.56,0,0,0,5.47.37,12.94,12.94,0,0,1-5.65.62,14.13,14.13,0,0,1-5.32-2.23,18.25,18.25,0,0,1-2.19-1.85,5.56,5.56,0,0,0-2.2-1.34,8.06,8.06,0,0,1-2.65-1.3,3,3,0,0,0-1-.66,4.73,4.73,0,0,0-1.24-.11l-5.6,0c-1.87,0-3.71.1-5.66-.11a13.61,13.61,0,0,1-2.81-.71c-.89-.32-1.77-.62-2.65-1C31,105.3,29.28,104.13,28.53,102.36Z"/><path class="cls-3" d="M24.78,79.06a9.23,9.23,0,0,1,1-2.36l1.59-1.92L29,72.86A6.6,6.6,0,0,1,31,71.18c1.59-.74,3.11-1.25,4.68-1.83.79-.28,1.57-.55,2.36-.81.84-.1,1.67-.22,2.52-.27-.73.43-1.48.8-2.21,1.22l-2.33.8c-1.53.56-3.14,1.12-4.56,1.78a5.48,5.48,0,0,0-1.75,1.45l-1.58,1.9-1.57,1.91A17.07,17.07,0,0,0,24.78,79.06Z"/><path class="cls-3" d="M18.54,83.05a1.25,1.25,0,0,1-.78-.11c-.25-.11-.45-.21-.66-.28a5.52,5.52,0,0,0-1.05-.74,6.07,6.07,0,0,0-1.15-.5.79.79,0,0,0-.41,0c-.08,0-.15.07-.3.24L12.38,83.7a5.93,5.93,0,0,1-1.08,1,1.69,1.69,0,0,1-1.58-.1,1.47,1.47,0,0,0,1-.72,4.89,4.89,0,0,0,.9-.87L13.44,81a1.57,1.57,0,0,1,.8-.55,1.71,1.71,0,0,1,.94,0,6.65,6.65,0,0,1,1.36.59,9.12,9.12,0,0,1,1.22.84C18.07,82.33,18.13,82.76,18.54,83.05Z"/><path class="cls-3" d="M177.6,62.29a12.83,12.83,0,0,0,3.74,1.9,10.16,10.16,0,0,0,1.93.64c.18,0,.26,0,.15,0s0,0,0-.14a8.45,8.45,0,0,1,.31-1.11,2.85,2.85,0,0,1,.66-1.09,1.78,1.78,0,0,1,1.35-.5,7.47,7.47,0,0,1,2.1.86.91.91,0,0,0,.68,0,1.11,1.11,0,0,0,.51-.5,3.28,3.28,0,0,0,.21-1.82l0-.33.31-.15a1.38,1.38,0,0,1,1.47.26,2,2,0,0,1,.65,1.15c.14.81,0,1.43.18,2a7.74,7.74,0,0,0,2.15,3,1.59,1.59,0,0,0,1.37.64,2.33,2.33,0,0,0,1.39-.79,3.4,3.4,0,0,0,.88-1.57,15.59,15.59,0,0,0,.37-2,10.71,10.71,0,0,1,.13,2.05,4,4,0,0,1-.64,2.11,3,3,0,0,1-2,1.17A2.27,2.27,0,0,1,194.2,68a3.86,3.86,0,0,1-.93-.71,8.62,8.62,0,0,1-2.4-3.5,16.51,16.51,0,0,1-.2-2c0-.48-.58-.82-.71-.69l.28-.48a4.2,4.2,0,0,1-.33,2.36,2.11,2.11,0,0,1-1,.93,1.87,1.87,0,0,1-1.4,0c-.77-.31-1.34-.79-1.81-.8s-.79.33-1,.94a6.73,6.73,0,0,0-.26,1,1.11,1.11,0,0,1-.45.79,1.1,1.1,0,0,1-.89.07,14.23,14.23,0,0,1-2.13-.67A10.89,10.89,0,0,1,177.6,62.29Z"/><path class="cls-3" d="M207.72,66.86a6.94,6.94,0,0,0,2.57-.4,10.84,10.84,0,0,0,2.41-.9,5.21,5.21,0,0,1,1.42-.41,5,5,0,0,1,1.47.09,4.39,4.39,0,0,0,1.2.11,1,1,0,0,0,.77-.44,8.26,8.26,0,0,0,.54-1.11l.54-1.23,1.07-2.45a16.74,16.74,0,0,0,.86-2.46,7.32,7.32,0,0,0,.65-2.54,6.48,6.48,0,0,1,.32,2.78,17.11,17.11,0,0,1-.91,2.61L219.55,63,219,64.2a7,7,0,0,1-.64,1.29,2,2,0,0,1-1.48.86,5.65,5.65,0,0,1-1.47-.12,3.83,3.83,0,0,0-1.19-.09,4.14,4.14,0,0,0-1.15.34,11.7,11.7,0,0,1-2.6,1A5.58,5.58,0,0,1,207.72,66.86Z"/><path class="cls-3" d="M227.38,65.38a7,7,0,0,1,1.46-2.17A9.49,9.49,0,0,1,231.17,62a8.52,8.52,0,0,1,2.59-.52c.41,0,1,0,1.16,0s.09,0,.16-.13.12-.29.21-.52a2.93,2.93,0,0,1,.93-1.13,4,4,0,0,0,.75-.84,5.51,5.51,0,0,0,.81-2.12,8.46,8.46,0,0,0,0-2.36c.09-.81.05-1.66.07-2.51a16.24,16.24,0,0,1,.93,2.41,9.68,9.68,0,0,1-.05,2.63,6.27,6.27,0,0,1-1,2.51,5.34,5.34,0,0,1-.92,1,1.86,1.86,0,0,0-.66.76,6.18,6.18,0,0,1-.27.64,1.23,1.23,0,0,1-.81.6c-.64.09-.91,0-1.33,0a8.26,8.26,0,0,0-2.3.47A8.1,8.1,0,0,0,229.44,64,10.19,10.19,0,0,0,227.38,65.38Z"/><path class="cls-1" d="M279.69,112.27c1.25-.11,2.18-1.15,3.28-1.75a9.87,9.87,0,0,1,4.39-.85l5.23-.2c2.1-.08,4.2-.17,6.3,0A64.16,64.16,0,0,1,308.6,111a6.71,6.71,0,0,1,2.25.75,2.36,2.36,0,0,1,1.21,2,26.78,26.78,0,0,1-5.58.33c-1.86-.14-2,3.37-3.41,2.15-.54,1-3.36-2.42-4.47-2.11a12.6,12.6,0,0,1-3.42.29,107.07,107.07,0,0,1-15.09-.77c-.61-.09-1.4-.59-1.06-1.1a.93.93,0,0,1,.71-.28l2.57-.24"/><path class="cls-1" d="M333,113.93a6.78,6.78,0,0,1,2.87-3.13,6.65,6.65,0,0,1,2.43-.37c5.82-.17,11.72-.32,17.35,1.15,1.06.28,2.36,1,2.08,2.09a16.16,16.16,0,0,1-8.91,0c-.75-.21-1.49-.49-2.25-.7a27,27,0,0,0-4.19-.71c-.84-.1-.52,1-1.36.94-.25.71-1.34.29-1,1,.21.36.51.79.29,1.14a1,1,0,0,1-.65.33,27,27,0,0,1-4.92.36l-4.91.07c-1.53,0-3.06,0-4.59-.07a54.8,54.8,0,0,1-10-1.94.78.78,0,0,1,.34-1.08,2.24,2.24,0,0,1,1.26-.15l9.88.69a28.46,28.46,0,0,1,3.2.35A10.1,10.1,0,0,0,333,113.93Z"/><path class="cls-6" d="M98.89,111.61l-9.26-.52a4.49,4.49,0,0,0-2.81.47c-.86.61-1.18,1.77-2,2.47-1.88,1.68-4.71,0-6.88-1.31s-6-1.21-6.07,1.3,4.59,4.59,2.93,6.6c-6,1.15-12.16.14-18.18-.86l-29-4.87c-3-.51-6.23-1.09-8.58-3.07-1.06-.89-1.89-2-2.89-3-2.78-2.62-6.7-3.68-9.78-6C.14,98.32-1.4,88.58,3.07,82.31c2.38-3.34,6.71-4,10.65-6.13,1.73-.92,2.32-2.36,4-3.41,2.33-1.47,4.55-.58,7.06-.83a2.85,2.85,0,0,0,1.79-.71c2.2-2,5.45-2.63,5.38-5.59a22.69,22.69,0,0,1,1.41-3.31,7.53,7.53,0,0,1,2.33-2.58c3.28-2,6.71-4,10.52-4.36.8-.07,1.61-.07,2.4-.19,1-.16,2-.53,3.08-.79a16.81,16.81,0,0,1,9.78.42,12.1,12.1,0,0,1,3,1.47,22.66,22.66,0,0,0,3,2.16,3.08,3.08,0,0,0,3.46-.25c1.69-1.7,5-1.63,7.27-1a10.07,10.07,0,0,1,4.26,2.84,7.14,7.14,0,0,1,1.89,2.79c.39,1.28.2,2.83,1.14,3.78a4.21,4.21,0,0,0,2.92.86,2.6,2.6,0,0,0,1.24-.16,4.17,4.17,0,0,0,.89-.74,4.84,4.84,0,0,1,3.91-1A11.33,11.33,0,0,1,98.32,67a6.62,6.62,0,0,0,2.12.9,2,2,0,0,0,2-.74c.78-1.21,1.25-2.57,2.08-3.75a5.77,5.77,0,0,1,3.35-1.84,23.89,23.89,0,0,1,6.46-1.23,4.05,4.05,0,0,0,2.5-.48,3.45,3.45,0,0,0,1-1.94,44.83,44.83,0,0,0,1.8-9.07c.06-1,.06-2,.2-3.06.61-4.38,3.91-7.93,7.6-10.35A29.93,29.93,0,0,0,130.31,34c2.63-2.18,5.67-4.06,9.06-4.47,1.06-.13,2.13-.11,3.2-.16a53.66,53.66,0,0,0,7.46-1,11.86,11.86,0,0,0,3.33-.93c2.31-1.15,3.61-3.6,5.18-5.65a21.6,21.6,0,0,1,12.59-8c4.82-1,9.75-3,14.66-3.43a31,31,0,0,1,6.74-.09A10.31,10.31,0,0,1,198.58,13a18,18,0,0,0,2,2c.83.6.71,1.84,1.37,2.62,2.24,2.66,5.61,4.25,7.51,7.16A12.81,12.81,0,0,1,211,28.25a3.3,3.3,0,0,0,1.31,2.15c2.59,1.31,6-.29,8.86-.36,2.53-.06,5.24-.08,7.37,1.31a12.36,12.36,0,0,1,2.94,3l5.19,6.75a22.56,22.56,0,0,1,2.77,4.24,2.74,2.74,0,0,1,.31,1.36,1.07,1.07,0,0,1-.87,1c-.3,0-.63-.12-.91,0a.87.87,0,0,0-.35.36c-.82,1.42.14,3.21,1.27,4.4s2.53,2.36,2.72,4c.06.5.21,1.21.7,1.12a7.85,7.85,0,0,1-.16,3.71,2.56,2.56,0,0,1-2.89,1.62,2.18,2.18,0,0,0-.69-.2c-.53,0-.86.6-.88,1.12s.15,1,.12,1.55c-.08,1.34-1.41,2.19-2.55,2.87a41.89,41.89,0,0,0-5.74,4.15,2.62,2.62,0,0,0-.86,1.07,1.42,1.42,0,0,0,1.87,1.62l.29,1.86a2.72,2.72,0,0,0,2.75-1.11,10.44,10.44,0,0,1,4.75-4c2-.86,4.23-1.34,6.23-2.3a26.88,26.88,0,0,1,4-1.9c2.93-.87,6.17.3,8.52,2.26a28.15,28.15,0,0,1,5.6,7.24,2.87,2.87,0,0,1,.6,1.92c-.13.76-.86,1.28-1.17,2a2.05,2.05,0,0,0,1.59,2.72c3.9.43,8.3,1.25,10.29,4.63a1.78,1.78,0,0,0,.48.61,1.57,1.57,0,0,0,.86.21,9.74,9.74,0,0,0,4.61-.67c.63-.29,1.2-.67,1.8-1a27.72,27.72,0,0,1,4.83-2c1.73-.59,3.62-1.19,5.33-.56,2.25.83,3.56,3.57,5.93,3.86a14.55,14.55,0,0,0,2.47,0c1.61-.07,2.2-.36,3,.18a15.7,15.7,0,0,1,4.34,5.43A13.23,13.23,0,0,1,308.75,98l1.2,0c1.94,4.28,6.05,7.9,10.68,8.66,6.38,1,13-2.29,19.25-.56,2.34.66,4.47,2,6.87,2.34a20.3,20.3,0,0,0,4.86-.14A52.45,52.45,0,0,1,369,109.64c1.14.27,2.43.75,2.77,1.87a2.39,2.39,0,0,1-1.25,2.56,6.94,6.94,0,0,1-3,.71,12.35,12.35,0,0,1-4.16-.11,13.7,13.7,0,0,0-2.71-.71,7.82,7.82,0,0,0-2.54.55,17.26,17.26,0,0,1-11.6-.55c-1.61-.67-3.19-1.6-4.94-1.64l0,1.34c1.23.15,2.84.74,2.68,2s-2,1.35-3.37,1.3c-2.89-.1-5.65,1.19-8.52,1.48-6.62.67-13.09-4-19.6-2.65-2.27.47-4.45,1.65-6.76,1.4s-4.22-1.87-6.42-2.63a18.38,18.38,0,0,0-6.37-.59c-5.15.11-10.3,0-15.46,0l-12.44-.19c-.54-1.12.61-2.37,1.76-2.87a7,7,0,0,1,3.69-.22,10.53,10.53,0,0,1,4.41-3.6c1.16-.38,2.7-.6,3-1.79a1.86,1.86,0,0,0-.94-1.9,5.19,5.19,0,0,0-2.17-.58,2.88,2.88,0,0,0-1.17,0c-1,.28-1.46,1.47-2.35,2a4.28,4.28,0,0,1-2,.48c-2,.16-4.08.3-5.85-.6-1.42-.71-2.51-2-4-2.49a2,2,0,0,0-1.37,0,3.4,3.4,0,0,0-1.08,1,8.24,8.24,0,0,1-5.1,2.5,16.43,16.43,0,0,1-5.75-.43,13,13,0,0,1-2.93-1c-.94-.45-1.79-1.08-2.74-1.52A12.24,12.24,0,0,0,235,102a7.32,7.32,0,0,0-3.1.66,3,3,0,0,0-1.7,2.51,9.15,9.15,0,0,1-2.5,1.44c-3,1.1-6.11,2.23-9.27,1.9-1-.1-1.88-.33-2.81-.51-1.89-.38-3.8-.58-5.71-.78l-6.09-.64c-3.45-.36-6.9-.72-10.37-.79a1.25,1.25,0,0,0-1.2,1.29,3,3,0,0,0,1,1.55,21.45,21.45,0,0,0,2.9,2.31,4.5,4.5,0,0,1,1.28,1,3.16,3.16,0,0,1,.44,2.31,3.57,3.57,0,0,1-1.3,2.45c-1.33.94-3.16.36-4.79.46a18.76,18.76,0,0,0-2.84.56c-3.75.78-7.6-.14-11.39-.69a115.61,115.61,0,0,0-17.46-.72,32.71,32.71,0,0,0-8.62.86,35.74,35.74,0,0,1-4.37,1.28,16.52,16.52,0,0,1-3.72,0,6,6,0,0,1-3.54-1,10.41,10.41,0,0,1-1.67-2.35,2.62,2.62,0,0,0-2.37-1.38c-5.33-.28-9.88,1.83-15.21,1.52a8.36,8.36,0,0,1-2.06-.33c-2.94-.93-4.53-4-6.86-6a21.51,21.51,0,0,0-6.11-3.31,1.2,1.2,0,0,0-1.16-.06.9.9,0,0,0-.31.75c0,1.48,1.5,2.9.86,4.24-.46.95-1.72,1.12-2.77,1.16A31,31,0,0,1,98.89,111.61Z"/><path class="cls-7" d="M613,43.71c-2.56,1.64-5.49-.21-8.59-.24-3.53,0-7.61-2.18-11.29-2.94-4.57-.94-8.7-.68-12.52-2.66,0-2.83,3.46-4.3,6.29-4.37s6,.44,8.24-1.22c1.63-1.18,2.44-3.21,4-4.53,4-3.47,10.48-.59,15.32-2.72a28.76,28.76,0,0,0,3.59-2.2,17.27,17.27,0,0,1,10.58-2.57,2.68,2.68,0,0,0,2.25-.43c.63-.67.33-1.75.22-2.66-.33-2.83,1.69-5.51,4.2-6.84s14.59-5.26,18-5.56c2.7-.24,5.79-1.49,8.65-.94,2,.38,10,2.13,11.94,3,2.75,1.24,4.29,4.33,7,5.63,3.62,1.73,7.83-.26,11.44-2C697.46,8,702.94,5.82,708.63,6s11.61,3,14,8.18c.44,1,1,2.18,2,2.22a2.54,2.54,0,0,0,1.46-.59l13.2-8.82a22.36,22.36,0,0,1,7.13-3.16c6.21-1.51,7.36-1,13.66-3.13,1.72-.59,9.64.75,11.45,1a8.41,8.41,0,0,1,3.56,1.62l14.18,9.32.37.24c2.21.82,3.22,2.41,5,3.94s4.11,2.85,6.42,2.34c1-.22,1.89-.78,2.87-1.06,2.19-.64,4.51.09,6.66.82a39.81,39.81,0,0,1,9.24,4c2.7,1.78,5.54,4.36,8.68,3.56,0-1.17,1.48-1.67,2.64-1.84a11.43,11.43,0,0,1,3.14-.16c4.05.58,6.66,5.42,10.75,5.49,1.68,0,3.49-.77,5,0a10.18,10.18,0,0,1,1.72,1.51c3.17,2.76,8.64.73,12,3.34.78.61,1.36,1.87.63,2.54a1.86,1.86,0,0,1-.77.38c-2.72.77-5.64.06-8.43.46-3.37.48-7,.83-10.34,1.31a16.64,16.64,0,0,1-9.71-1.06c-.52-.48-2.17-.56-4.37,1s-4.35,3.72-6.87,5.05a9.13,9.13,0,0,1-6.5,1,2.62,2.62,0,0,0-2.8.82c-5.3,6.4-14.68,10.16-22.91,9.91a23.74,23.74,0,0,1-4.83-.61c-1.54-.37-3-.92-4.55-1.27a39.09,39.09,0,0,0-6.74-.68q-6.93-.36-13.87-.65a48.93,48.93,0,0,0-8,.05c-5.32.67-10.18,3.34-15.42,4.52a47.72,47.72,0,0,1-7.26.92A156.8,156.8,0,0,1,704.83,58c-3.28-.33-6.57-.57-9.86-.76a56,56,0,0,1-8.18-.86c-2.41-.49-4.75-1.29-7.14-1.84a31.82,31.82,0,0,0-15.78.29,44.79,44.79,0,0,1-6.39,1.75,26,26,0,0,1-4.5,0c-4.35-.2-8.79-.43-12.82-2.08-2.18-.9-4.23-2.21-6.56-2.59-1.62-.27-3.32-.07-4.91-.49a40,40,0,0,1-4.43-2c-2.88-1.16-6.45-1-8.59-3.26C614.23,44.64,613.67,43.29,613,43.71Z"/><path class="cls-8" d="M615.12,34.28c3.08-1.19,5.73-3.28,8.65-4.83,8.36-4.45,18.87-4.4,26.33-10.22a3.19,3.19,0,0,0,1.23-1.52,12.31,12.31,0,0,0,0-2.27c.18-1.8,2.21-2.69,3.94-3.23a24.52,24.52,0,0,1,6.14-1.34,21.53,21.53,0,0,1,5.47.64,86.57,86.57,0,0,1,13.62,4.14c1.33.53,3,1,4,0a10,10,0,0,0,.8-1.2,2.88,2.88,0,0,1,3.29-1l-1.85,5.64a7.06,7.06,0,0,1-1.18,2.47c-1.06,1.22-2.79,1.56-4.38,1.83l-13,2.15a6.5,6.5,0,0,0-3.12,1.1,2.23,2.23,0,0,0-.61,2.95,13.19,13.19,0,0,1,12.1.36,4.06,4.06,0,0,0,5.11,0,15.74,15.74,0,0,1,13.47.59,3.5,3.5,0,0,0,2.31.68,2.92,2.92,0,0,0,1.24-.76c2.16-1.93,4.29-4.51,7.19-4.45,1.79,0,3.36,1.11,5,1.78,3.67,1.5,7.8,1.08,11.73.63a8.89,8.89,0,0,0,3.5-.9c1.4-.81,2.34-2.38,3.88-2.85,3.25-1,6.56,3.41,9.67,2,4-1.78,7.71-4.95,12.13-4.92,2.81,0,5.73.78,8.37-.19a18.1,18.1,0,0,0,3.88-2.39c9.43-6.57,24.64-6.33,33.53.94-2.86,2.68-7.16,5.64-10,8.32-2.54,2.38-5.16,4.81-8.35,6.2-5.17,2.24-11.12,1.46-16.62,2.7-6,1.35-11.23,5-17.23,6.28-5.79,1.2-11.83,0-17.7.81-2.66.36-5.28,1.12-8,1.27a36.72,36.72,0,0,1-9-1c-11.44-2.22-23.07-4.06-34.71-3.42-8.29.46-16.72,2.17-24.82.28-4.38-1-8.56-3.08-13.06-3.21-4.24-.12-8.31,1.49-12.46,2.34a35.46,35.46,0,0,1-20.24-1.87.69.69,0,0,1,.28-1.32C609.43,37.72,613,37.32,615.12,34.28Z"/><path class="cls-3" d="M790.56,21.9a3.75,3.75,0,0,0-1.9,1.46,9.58,9.58,0,0,0-1.11,2.16,17.94,17.94,0,0,1-1.07,2.33A18.43,18.43,0,0,1,785,30a25.57,25.57,0,0,1-3.5,3.72,6.58,6.58,0,0,1-2.31,1.22,4.43,4.43,0,0,1-1.3.14c-.42,0-.85-.11-1.19.17.26-.38.79-.38,1.18-.43a4.49,4.49,0,0,0,1.15-.34,6.63,6.63,0,0,0,2-1.36,19.07,19.07,0,0,0,1.65-1.81c.53-.64,1.07-1.28,1.58-1.93a18.87,18.87,0,0,0,2.59-4.16A8.47,8.47,0,0,1,788.29,23,3.65,3.65,0,0,1,790.56,21.9Z"/><path class="cls-3" d="M773,35.18c.1,0,.12.2.06.3a.75.75,0,0,1-.2.26,3.12,3.12,0,0,1-.45.28,4.71,4.71,0,0,1-.88.34,3.46,3.46,0,0,1-1.94,0,3.48,3.48,0,0,1,1.69-1,4.17,4.17,0,0,1,.94-.12,2.09,2.09,0,0,1,.45,0C772.77,35.29,772.93,35.36,773,35.18Z"/><path class="cls-3" d="M764.29,37.31a3.18,3.18,0,0,1-1.68,1.11,3.08,3.08,0,0,1-2,0,4.26,4.26,0,0,1,1.73-.93A4.19,4.19,0,0,1,764.29,37.31Z"/><path class="cls-3" d="M746.83,43q-2.13.27-4.26.36c-.71,0-1.42,0-2.13.07a16.73,16.73,0,0,0-2.05.08,3.09,3.09,0,0,0-.9.27,3.89,3.89,0,0,1-1.14.33,17.72,17.72,0,0,1-2.2,0q-2.13-.1-4.26-.39c1.42-.19,2.84-.33,4.26-.39.7-.06,1.46,0,2.07-.12a3.4,3.4,0,0,0,.88-.3,4.47,4.47,0,0,1,1.14-.36,14.83,14.83,0,0,1,2.2,0c.71,0,1.42,0,2.13.09Q744.7,42.72,746.83,43Z"/><path class="cls-3" d="M722.47,45.06a39.86,39.86,0,0,1-4.24.49,8,8,0,0,1-2.22-.18,11.57,11.57,0,0,1-2-.83,4.55,4.55,0,0,0-1.87-.45c-.7-.07-1.41-.11-2.11-.2s-1.4-.18-2.08-.17a2.5,2.5,0,0,0-1.88.65,2.5,2.5,0,0,1,1.83-1.14,13.41,13.41,0,0,1,2.17-.12c.71,0,1.41,0,2.12,0a5.44,5.44,0,0,1,2.23.49,14,14,0,0,0,1.87.83,9.73,9.73,0,0,0,2,.32C719.62,44.84,721.06,44.9,722.47,45.06Z"/><path class="cls-3" d="M700.15,42.19a37.85,37.85,0,0,0-11.85-1.73,24.73,24.73,0,0,0-5.87.82A16.9,16.9,0,0,0,677,43.8a12.86,12.86,0,0,1,5.17-3.27,20.1,20.1,0,0,1,6.09-1.07A24.58,24.58,0,0,1,700.15,42.19Z"/><path class="cls-3" d="M671.4,43a12.44,12.44,0,0,1-6.41.33c-2.14-.38-4.2-1-6.28-1.43a28.12,28.12,0,0,0-3.13-.46c-1-.07-2.11,0-3.21-.1a12.73,12.73,0,0,1-3.28-.55C648,40.44,647,40,646,39.69a15.12,15.12,0,0,0-6.13-1,15.36,15.36,0,0,0-3.09.45c-1,.26-2,.6-3.08.89a23.52,23.52,0,0,1-6.45.85,63,63,0,0,1-6.44-.46c2.15,0,4.3.11,6.43,0a23.41,23.41,0,0,0,6.24-1.09,22,22,0,0,1,6.34-1.52,16.2,16.2,0,0,1,6.51,1,18.65,18.65,0,0,0,6,1.65c1.05.07,2.13.06,3.23.15a20.6,20.6,0,0,1,3.23.57c2.1.53,4.13,1.24,6.2,1.7A12.88,12.88,0,0,0,671.4,43Z"/><path class="cls-8" d="M863.4,37.89c-3.13,1.36-6.72.29-10.13.48-4.49.25-8.94,2-13.4,1.31-3.06-.44-6.26-2-9.08-.68-1.84.83-3,2.67-4.5,4a10.16,10.16,0,0,1-6.1,2.55,14.31,14.31,0,0,0-4.2.37,9.81,9.81,0,0,0-3,2.21,31,31,0,0,1-22.25,7.94c-1.88-.1-3.65-.51-5.52-.74a22.76,22.76,0,0,1-2.58-.43c-.79-.2-1.56-.49-2.36-.67a17,17,0,0,0-2.67-.28L756.7,52.86a16.87,16.87,0,0,0-5.68.34,28,28,0,0,0-3.15,1.33,45.64,45.64,0,0,1-7.62,2.33l-4.24,1c-8.28,2-17.07.33-25.58.12q-8.41-.21-16.79-.94a81.24,81.24,0,0,1-13-2.27c-1.14-.29-2.28-.6-3.43-.8a26.8,26.8,0,0,0-6.2-.3,40,40,0,0,0-8.28,1.38,32.42,32.42,0,0,1-4.21,1.06,24.17,24.17,0,0,1-3.18.14l-9.41,0c-5.87,0-11.12-4-16.19-7-1.5-.89-3.19-2.41-2.61-4.06,4.78-.79,9.54,1.4,14.39,1.59,2,.08,4.09-.19,6.11.07a42.33,42.33,0,0,1,5.57,1.47,26.07,26.07,0,0,0,8.52.87c3-.19,5.86-.88,8.81-1.22a73,73,0,0,1,10.87-.15,20.92,20.92,0,0,1,4.11.42c1.12.28,2.19.74,3.3,1a21.82,21.82,0,0,0,5.59.46l16.84-.06a23.59,23.59,0,0,1,10.35,2.71c2.24,1.07,5.32,0,7.78-.61.66-.17,1.31-.38,2-.57a34.66,34.66,0,0,1,8.58-1.35,6.11,6.11,0,0,0,2.59-.41c.64-.32,1.14-.86,1.74-1.23a11,11,0,0,1,3.64-1,33.83,33.83,0,0,0,6.91-2.74,15,15,0,0,1,7.17-1.73c4,.3,8-.1,11.94.09s8.06,1,11.3,3.32a4.69,4.69,0,0,0,1.74,1,4,4,0,0,0,2.78-.8A53.74,53.74,0,0,0,797,41c2.82-2.42,5.55-5.24,9.14-6.25,3.19-.9,6.55-.22,9.7.93a4,4,0,0,0,3.44-.4,22.19,22.19,0,0,1,2.94-1.36l7.18-3.09a20.42,20.42,0,0,1,3.22-1.2c3.41-.84,7,.28,10.26,1.51a10.59,10.59,0,0,0,2.06.61c.9.14,1.83,0,2.73.16,1.64.22,3.08,1.17,4.63,1.73,3.07,1.12,6.53.72,9.61,1.82.94.33,2,1,2,2A1.12,1.12,0,0,1,863.4,37.89Z"/><path class="cls-3" d="M628,45.48a19.14,19.14,0,0,0,10.35,1.73,14.25,14.25,0,0,1,2.8-.14,4.69,4.69,0,0,1,2.66,1.17,9.08,9.08,0,0,0,4.74,2.22,7.68,7.68,0,0,1-5.2-1.59c-1.38-1.13-3.07-.91-4.88-.67a14.93,14.93,0,0,1-5.53-.36A13.69,13.69,0,0,1,628,45.48Z"/><path class="cls-3" d="M626.91,35.2a4.06,4.06,0,0,1-2.08,2.5,11.55,11.55,0,0,1-3.07,1.16,6.52,6.52,0,0,1-3.34,0,9.68,9.68,0,0,1-2.91-1.45c1,.24,2.07.56,3.07.69a7.84,7.84,0,0,0,3-.23,20.36,20.36,0,0,0,2.94-.87A5.21,5.21,0,0,0,626.91,35.2Z"/><path class="cls-3" d="M609.19,38.94a12.12,12.12,0,0,1-6.89,0,12.12,12.12,0,0,1,6.89,0Z"/><path class="cls-3" d="M662,27.13a9.34,9.34,0,0,1,1.77-2.67,4.79,4.79,0,0,1,3-1.48,30.11,30.11,0,0,1,6.3.43,25.51,25.51,0,0,1-3.13.4c-1,.1-2.11.08-3.07.16A4.89,4.89,0,0,0,664.28,25C663.49,25.64,662.78,26.41,662,27.13Z"/><path class="cls-3" d="M676.78,23.48c1.46-.33,2.93-.6,4.4-.81a2.16,2.16,0,0,0,.89-.22,6.72,6.72,0,0,0,.71-.71l.77-.8a9.73,9.73,0,0,0,.72-.76,1.94,1.94,0,0,0,.35-.82,8,8,0,0,1,.35-1.12,8.73,8.73,0,0,1,1.15-2,16.59,16.59,0,0,1,3.26-3.12,42.56,42.56,0,0,0-2.61,3.56,10.16,10.16,0,0,0-.92,1.91,9.92,9.92,0,0,0-.28,1,2.87,2.87,0,0,1-.51,1.21,11.07,11.07,0,0,1-.82.84l-.79.78a6,6,0,0,1-.93.79,2.69,2.69,0,0,1-1.27.25Q679,23.56,676.78,23.48Z"/><path class="cls-3" d="M810.38,43.94a1.64,1.64,0,0,1-1.44-.17,4,4,0,0,1-1.06-.91c-.29-.35-.54-.69-.77-1a9.64,9.64,0,0,0-.8-1,2.17,2.17,0,0,1,1.35.47,6.28,6.28,0,0,1,1,.94l.78.94A3.36,3.36,0,0,0,810.38,43.94Z"/><path class="cls-3" d="M803.48,46.35a3.79,3.79,0,0,1-3-2.3,3.79,3.79,0,0,1,3,2.3Z"/><path class="cls-3" d="M799.23,49.87a2.22,2.22,0,0,1-1.9,0A2.18,2.18,0,0,1,796,48.54a5.62,5.62,0,0,1,1.7.44A5.93,5.93,0,0,1,799.23,49.87Z"/><path class="cls-9" d="M795.51,52.47l-3-.72"/><path class="cls-3" d="M766.24,50.26a16.69,16.69,0,0,1,1.53-.73,14.24,14.24,0,0,1,1.6-.57,1.9,1.9,0,0,1-1.21,1.49A1.92,1.92,0,0,1,766.24,50.26Z"/><path class="cls-3" d="M762.18,49.39a7.33,7.33,0,0,1-2.28.43,7.51,7.51,0,0,1-2.32-.19,4.19,4.19,0,0,1,4.6-.24Z"/><path class="cls-10" d="M613,43.71c-2.56,1.64-5.49-.21-8.59-.24-3.53,0-7.61-2.18-11.29-2.94-4.57-.94-8.7-.68-12.52-2.66,0-2.83,3.46-4.3,6.29-4.37s6,.44,8.24-1.22c1.63-1.18,2.44-3.21,4-4.53,4-3.47,10.48-.59,15.32-2.72a28.76,28.76,0,0,0,3.59-2.2,17.27,17.27,0,0,1,10.58-2.57,2.68,2.68,0,0,0,2.25-.43c.63-.67.33-1.75.22-2.66-.33-2.83,1.69-5.51,4.2-6.84s14.59-5.26,18-5.56c2.7-.24,5.79-1.49,8.65-.94,2,.38,10,2.13,11.94,3,2.75,1.24,4.29,4.33,7,5.63,3.62,1.73,7.83-.26,11.44-2C697.46,8,702.94,5.82,708.63,6s11.61,3,14,8.18c.44,1,1,2.18,2,2.22a2.54,2.54,0,0,0,1.46-.59l13.2-8.82a22.36,22.36,0,0,1,7.13-3.16c6.21-1.51,7.36-1,13.66-3.13,1.72-.59,9.64.75,11.45,1a8.41,8.41,0,0,1,3.56,1.62l14.18,9.32.37.24c2.21.82,3.22,2.41,5,3.94s4.11,2.85,6.42,2.34c1-.22,1.89-.78,2.87-1.06,2.19-.64,4.51.09,6.66.82a39.81,39.81,0,0,1,9.24,4c2.7,1.78,5.54,4.36,8.68,3.56,0-1.17,1.48-1.67,2.64-1.84a11.43,11.43,0,0,1,3.14-.16c4.05.58,6.66,5.42,10.75,5.49,1.68,0,3.49-.77,5,0a10.18,10.18,0,0,1,1.72,1.51c3.17,2.76,8.64.73,12,3.34.78.61,1.36,1.87.63,2.54a1.86,1.86,0,0,1-.77.38c-2.72.77-5.64.06-8.43.46-3.37.48-7,.83-10.34,1.31a16.64,16.64,0,0,1-9.71-1.06c-.52-.48-2.17-.56-4.37,1s-4.35,3.72-6.87,5.05a9.13,9.13,0,0,1-6.5,1,2.62,2.62,0,0,0-2.8.82c-5.3,6.4-14.68,10.16-22.91,9.91a23.74,23.74,0,0,1-4.83-.61c-1.54-.37-3-.92-4.55-1.27a39.09,39.09,0,0,0-6.74-.68q-6.93-.36-13.87-.65a48.93,48.93,0,0,0-8,.05c-5.32.67-10.18,3.34-15.42,4.52a47.72,47.72,0,0,1-7.26.92A156.8,156.8,0,0,1,704.83,58c-3.28-.33-6.57-.57-9.86-.76a56,56,0,0,1-8.18-.86c-2.41-.49-4.75-1.29-7.14-1.84a31.82,31.82,0,0,0-15.78.29,44.79,44.79,0,0,1-6.39,1.75,26,26,0,0,1-4.5,0c-4.35-.2-8.79-.43-12.82-2.08-2.18-.9-4.23-2.21-6.56-2.59-1.62-.27-3.32-.07-4.91-.49a40,40,0,0,1-4.43-2c-2.88-1.16-6.45-1-8.59-3.26C614.23,44.64,613.67,43.29,613,43.71Z"/><path class="cls-11" d="M1205.72,213.27a2.21,2.21,0,0,1-1.82,1.9,327.13,327.13,0,0,1-56.65,2.49c-6.66-.28-13.32-.77-20-.72-19.89.14-39.58,5.06-59.47,4.43-6.39-.2-13-1.05-18.37-4.63a4.3,4.3,0,0,1-1.84-2.4c-.66-2.6,1.92-4.22,4.14-5.16a90.61,90.61,0,0,1,48-6.18,1.36,1.36,0,0,0,1.57-1.21,2.94,2.94,0,0,1,.94-1.89,7.15,7.15,0,0,1,3.55-1.36q9.2-1.66,18.52-2.5a13.56,13.56,0,0,0,3.54-.63,15.6,15.6,0,0,0,3.08-1.8,39.6,39.6,0,0,1,33.13-4.89,57.84,57.84,0,0,0,8.18,2.38c7.15,1.05,14.12-2.67,21.33-3.23,6.18-.47,12.26,1.38,18.16,3.37a3.29,3.29,0,0,0,2.41-.13c12.34-5.64,25.49-8.07,38.77-11a14.44,14.44,0,0,1,5.13-.52c2.82.39,5.29,2.43,8.14,2.43,4.63,0,8.34-5.37,12.88-4.43,4.76,1,6,8,10.55,9.61,3.26,1.13,6.66-.94,9.75-2.48,4.09-2,8.68-5,13.15-5.91,2.09-.43,8.67-.43,9.06-.83,2-2.06,1-4.06-.33-7.77-1.8-5.06-9.67-.52-14.61.44-10,1.92-20.18-3.17-30.23-1.8-1.51.21-3.3.47-4.24-.84a2.58,2.58,0,0,1,.42-3.32c1.66-1.63,3.94-1.44,6.06-1.44,10.4,0,20-5.14,29.73-8.74,6.95-2.56,13.54-4.66,20.61-4.39,3,.11,7.14-.62,9.68,1.25,2.13,1.56,4.73-.67,7.26-1,1.31-.19,2.36.44,3.53-.24,1.76-1,3.49-.49,5.38-.91s3.69-1.77,5.57-1.62c-1-7.94,6.32-15,14.15-16.63s15.88.66,23.55,2.94c2,.6,2.19,2.62,4.23,3.22,1.67.5,4.66,0,6.75.18a1.12,1.12,0,0,0,1.1-1.6,4.22,4.22,0,0,0-1.68-1.75c-1.25-.72-2.78-1.14-3.61-2.33-1.2-1.71-.39-4.11-1.07-6.08-1.37-4-7.32-3.75-10.2-6.81a8.81,8.81,0,0,1-1.92-3.85c-2.4-9.08,3.24-19.54,12.15-22.52A38.47,38.47,0,0,1,1420.51,76c7.29-3.92,15.26-6.37,23.17-8.79,7-2.14,14.6-4.28,21.52-1.88,9.32,3.24,14.07,13.38,21.46,19.9,6,5.3,13.77,8.18,20.26,12.89,5.81,4.23,10.78,11,10.19,18a3,3,0,0,0,3.8,3.1,9.56,9.56,0,0,0,2.6-1.34c2-1.49,4.12-3.46,6.62-3.15,1.46.18,2.69,1.13,4.06,1.68,3.38,1.35,7.34.09,10.2-2.16s4.89-5.35,7.06-8.28c4.42-6,10.11-11.73,17.44-13,2.8-.51,5.68-.33,8.53-.5,7.27-.43,14.19-3.12,21.27-4.84a9.53,9.53,0,0,1,3.55-.37,10.11,10.11,0,0,1,4.28,2.19l9.5,7h.6a19.52,19.52,0,0,1,11.78,4,6.25,6.25,0,0,0,3.89,1.45,28.73,28.73,0,0,0,4.2-.69,10,10,0,0,1,6.71,1.44,5.41,5.41,0,0,1,2.69-3.76,5.05,5.05,0,0,0,1.42-.88,3.26,3.26,0,0,0,.64-1.83,36.67,36.67,0,0,0-1.77-16.72,6.61,6.61,0,0,1,1.21-6.53c4.27-4.84,11.51-5.7,17.77-7.17a4.55,4.55,0,0,0,2.38-1.06,5.74,5.74,0,0,0,1-2.94c.73-3.93,4-7,7.71-8.53S1684,51.31,1688,51c5.27-.35,10.64-.7,15.77.56s10.07,4.4,12.16,9.25c5.44,0,10.72-1.61,16-2.71a32,32,0,0,1,18,1.62c7.9,3.09,16.31,5.55,23.53,10.16,2.83,1.8,5.46,3.93,8.49,5.37,6.08,2.89,13.3,2.78,19.25,5.94,9.82,5.21,13.28,17.53,14.14,28.62.19,2.47.36,5.14,1.95,7.06a4.15,4.15,0,0,0,6.67-.56c9.69-15.2,34-13.62,52.23-14.35,8.37-.34,17.16-.59,24.66,3.15a25.59,25.59,0,0,1,13.82,23.31,16.07,16.07,0,0,0,.17,4.95c1.31,4.56,7.66,7.07,8.42,11.28a2.23,2.23,0,0,0,1.81,1.77,10.63,10.63,0,0,1,6.74,4.31c.38.54.75,1.16,1.37,1.36.36.12,8.74,11.24,8.84,23.34.06,6.88-.76,13.65-3.41,19.77a6.84,6.84,0,0,1-1.24,1.74,31.4,31.4,0,0,1-16.8,9.41c-8.29,1.66-17.35,1.35-25.57.77l-69.24-4.81a20,20,0,0,0-7,.34c-2.32.68-4.29,2.17-6.42,3.32-8,4.33-17.82,3.65-26.71,1.61s-17.58-5.32-26.69-5.86c1,2.55-.6,5.52-2.91,7s-5.14,1.79-7.86,2.07a933.78,933.78,0,0,1-119.31,4.39c-6.33-.17-12.8-.39-18.85,1.48-29.54-.31-57.72.21-87.26-.09,0-2.42,2.31-4.28,4.68-4.78s4.81-.07,7.23-.12c8.24-.19,16.15-6.05,24.12-4,3.16.83,6.27,2.89,9.43,2.05,2.72-.73,4.4-3.35,6.24-5.48s4.82-4,7.32-2.74c.94-.45.86-1.95.09-2.66a4.89,4.89,0,0,0-2.93-1q-13.57-1.3-27.22-1.58c-2.13,0-4.5,0-6,1.49-.93.88-1.42,2.15-2.38,3-2.11,1.87-5,.9-7.56-.76a3.59,3.59,0,0,0-4.32.4c-3,2.56-7.53,3.31-11.61,3.09-4.26-.24-8.55-1.24-12.77-1a3.6,3.6,0,0,0-3.13,2.11,13.81,13.81,0,0,1-23,3.79,1.36,1.36,0,0,0-1.76-.2c-3.79,2.57-10.18,4-14.29,2.79a14.47,14.47,0,0,1-8.94-7.86,3.57,3.57,0,0,0-3-2c-3-.25-6.16.32-9.24.46-3.87.17-8.26-.63-10.45-3.83-.76-1.1-1.24-2.47-2.34-3.23a5.72,5.72,0,0,0-3.47-.69,35,35,0,0,0-12.67,2.83c-4.31,1.87-9,4.66-13.37,4.2a1.9,1.9,0,0,0-2,2.3l.06.29c-3-.26-5.66,2.05-7.47,4.5s-3.3,5.27-5.86,6.9c-25.81-.18-51.39.55-77.18.46a6.5,6.5,0,0,1-4.77-2.33c-1.48-1.67-4.83-1.63-7.85-2a54.92,54.92,0,0,1-17.7-5.68c-2.1-1.1-4.19-2.35-6.54-2.64-3.21-.38-6.3,1.09-9.37,2.1-8.35,2.75-17.36,2.11-26.13,1.67-10.43-.53-17.83-1.25-27.16,2a4.65,4.65,0,0,0-2.64,2.56A16.82,16.82,0,0,0,1205.72,213.27Z"/><path class="cls-8" d="M1081.36,207.87c13.1.14,26.36,5.38,39,2,4.55-1.24,8.77-3.55,13.36-4.64a49.93,49.93,0,0,1,9.92-1q26.26-.88,52.53.81c3.55.22,7.7.24,9.92-2.54.85-1.05,1.36-2.46,2.56-3.08a5,5,0,0,1,3-.2,53.77,53.77,0,0,1,18.28,6.18c-3.8,1.26-7.92.81-11.92.93s-8.36,1-10.87,4.12c-.92,1.14-1.2,2.85-2.18,3.91-.29.31-1,.27-1.33.51a8.65,8.65,0,0,1-4,1,473.43,473.43,0,0,1-59.79,1.32c-7-.29-14.06-.74-21.07-.21-5.59.41-11.11,1.45-16.64,2.34-4.45.72-9.31,1-14,1.5-10.17,1.08-20.39,1.7-29.88-.44-.58-.13-.89-.65-1.47-.8-2.08-.52-3.18-1.32-5.2-2.07-1.76-.65-3.78-2.72-2.39-4a2.81,2.81,0,0,1,1.51-.53c2.79-.39,5.63-.21,8.4-.55,2.27-.28,4.4-1.5,6.58-2.19A50.22,50.22,0,0,1,1081.36,207.87Z"/><path class="cls-8" d="M1396.56,198.05a3.88,3.88,0,0,0-3.36-2.63c-3.3-.25-6.63-.16-9.54,1.31-4.94,2.48-8.11,8.6-13.62,9-3,.2-6-1.47-9-.71a11,11,0,0,1-2.77.71,5.6,5.6,0,0,1-3.17-1.49,39.29,39.29,0,0,1-6.06-5.31,28.11,28.11,0,0,0-2.71-3.05c-2.26-2-5.37-2.6-8.32-3.15-1.26-.23-2.61-.46-3.72.32a1.74,1.74,0,0,0-.55,2.37c.74,1.05,2.39.61,3.64.93a5.17,5.17,0,0,1,2.1,1.29,65.76,65.76,0,0,1,9.62,10.25,1.1,1.1,0,0,1,.32.89,1.13,1.13,0,0,1-.48.56,36.35,36.35,0,0,1-8.41,4.54,2.13,2.13,0,0,1-1.48.17c-.54-.19-.83-.76-1.1-1.27a8.84,8.84,0,0,0-3.85-3.85,13.44,13.44,0,0,0-4.68-.92l-18.28-1.39c.85-1.81,3.11-2.5,5-3.17,1-.37,1.54-1.22,2.65-1.07a3.1,3.1,0,0,0,2-.4c1.9-1.14.83-3-.56-3.5a6.09,6.09,0,0,0-3.14.08l-5.29,1.08a16.79,16.79,0,0,0-6,2.07c-1,.63-2,1.52-3.1,1.26-.84-.2-1.39-1-2.1-1.48-1.66-1.14-4.07-.48-5.5.95a13.34,13.34,0,0,0-2.76,5.32,1.78,1.78,0,0,0-.09,1.3,1.62,1.62,0,0,0,1.09.74c2.53.78,5.31.57,7.79,1.49,1.81.68,3.36,1.93,5.12,2.75,3.14,1.48,6.75,1.51,10.23,1.52,20.4,0,40.67-.32,61.08-.29,3.56,0,7.56.3,10.36-1.9a20.61,20.61,0,0,0,3.21-3.63c1-1.29,1.73-2.94,3-4.05,1.07-.93,2.68-1.33,3.48-2.4C1398.68,201.79,1397.27,200,1396.56,198.05Z"/><path class="cls-3" d="M1160.19,205.35a2,2,0,0,0,1.37,1.2,3.53,3.53,0,0,0,1.72.48c1.27,0,2.73-.36,4.25.14.73.26,1.31.64,1.9.86a9.15,9.15,0,0,0,1.88.51,18.62,18.62,0,0,0,2,.19c.67.19,1.35.32,2,.52-.68.2-1.37.33-2.08.47a15.06,15.06,0,0,1-2.11-.2,9.64,9.64,0,0,1-2.09-.56c-.69-.27-1.29-.65-1.86-.84-1.13-.4-2.48-.07-3.94-.09a4.67,4.67,0,0,1-2.21-.61A2.17,2.17,0,0,1,1160.19,205.35Z"/><path class="cls-3" d="M1210.48,198.55a6.81,6.81,0,0,1-.24-1l.25-.89.49-1.78.49-1.77.25-.89a8.53,8.53,0,0,1,.73-.75,7.83,7.83,0,0,1,.23,1l-.24.89-.5,1.77-.49,1.78-.24.89A7.31,7.31,0,0,1,1210.48,198.55Z"/><path class="cls-3" d="M1303.35,212.54c.82-1.19,1.72-2.33,2.64-3.46a32.22,32.22,0,0,1,3.3-2.86,20.45,20.45,0,0,1,3.79-2.27,38.36,38.36,0,0,1,4.13-1.37c1.31-.44,2.43-1.16,2.67-2.46.09-.33.16-.7.3-1.09a3.62,3.62,0,0,1,.64-1.07,6.16,6.16,0,0,1,1.88-1.38c1.32-.65,2.6-1.26,3.93-1.85a28.54,28.54,0,0,1,4.24-1,40.83,40.83,0,0,0-3.84,2c-1.29.57-2.61,1.19-3.87,1.82a5.22,5.22,0,0,0-1.58,1.14,3.68,3.68,0,0,0-.73,1.76,4.44,4.44,0,0,1-.45,1.13,3.87,3.87,0,0,1-.81.94,6.43,6.43,0,0,1-2,1.08,40.9,40.9,0,0,0-4,1.34,18.58,18.58,0,0,0-3.6,2.16,32.34,32.34,0,0,0-3.2,2.78C1305.56,210.68,1304.48,211.64,1303.35,212.54Z"/><path class="cls-8" d="M1676.28,121.92a3.22,3.22,0,0,1-2.57-1.15,3.53,3.53,0,0,0-3-1c-1.62.27-3.29,1.14-4.81.53-.78-.31-1.38-1-2.17-1.23-1.31-.43-2.6.34-3.67,1.31a1.07,1.07,0,0,1-1.59-.19h0a1.07,1.07,0,0,0-1.86.17l-1.39,3.11a3.49,3.49,0,0,1-.85,1.34c-1,.82-2.49.4-3.47-.4s-1.68-1.91-2.7-2.66c-4-2.91-10.22,1.23-14.44-1.38-1.26-.78-2.26-2.14-3.74-2.33a5.29,5.29,0,0,0-3.43,1.26c-3,2-6.3,4.5-5.79,8.51a4.84,4.84,0,0,1-.37,2.55c-1.31,3-4.45,1.53-7,1.91-1.66.25-3,1.31-4.5,2.16-6,3.51-13.34,3.5-20.29,3.39a6.69,6.69,0,0,1-3.81-.83c-.64-.45-1.1-1.11-1.7-1.61a11.65,11.65,0,0,0-3.6-1.68,19,19,0,0,1-9.53-7.85c3.35-1.23,7.09-.25,10.62-.77,1.82-.27,3.56-.94,5.37-1.29,3.52-.68,7.14-.12,10.73,0s7.43-.42,10.11-2.79,3.64-6,4.61-9.38c.24-.84.59-1.79,1.42-2.07a9,9,0,0,1,1.73-.07c1.47-.16,2.31-1.89,2.16-3.37a14.15,14.15,0,0,0-1.6-4.12,6.51,6.51,0,0,1-.67-2.85,1.13,1.13,0,0,1,1.33-1c1.25.17,2.73-.69,4.09-.93,3.36-.6,6.08,2.6,9.24,3.88,2.38,1,4.63.24,7.19.39.86.06,2.35-.37,3.2-.24,2.31.34,4.34,2,6.51,2.88a11.05,11.05,0,0,1,4.83,3.22c1,1.33,1.56,3,2.8,4.17,1.71,1.55,4.3,1.63,6.56,1.18s4.46-1.31,6.77-1.33c5.72-.05,10.13,4.93,15.5,6.91,2.55.94,5.73,1.53,7.4,3.42a.7.7,0,0,1-.7,1.14,20.82,20.82,0,0,0-6.07-.87C1682.58,121.91,1678.8,121.84,1676.28,121.92Z"/><path class="cls-8" d="M1372.16,160.39a1.81,1.81,0,0,0,1.89-1.79,5.32,5.32,0,0,0-8.32-4.6c-.62-.44-.07-1.42.55-1.87,3.28-2.36,7.79-1.94,11.71-.94s7.9,2.47,11.9,1.87c3.31-.5,6.26-2.37,9.52-3.06a8.8,8.8,0,0,1,6.13.87,7.58,7.58,0,0,0,4.51,1.22,3.63,3.63,0,0,1,2,.41,8.15,8.15,0,0,1,3.09,4,49.82,49.82,0,0,1,2,5,2.52,2.52,0,0,1-3.42,3.06h0c-5-2.15-10.15-4.35-15.58-4.28s-11.22,3-12.8,8.23c-.78,2.58-.46,5.35-.7,8s-1.32,5.61-3.78,6.71a9.4,9.4,0,0,1-2.89.63l-5.87.66a6.17,6.17,0,0,1-3.52-.3c-1.11-.57-1.8-1.78-2.95-2.26-2-.82-4.31.8-6.26,0-1.32-.56-1.94-2-2.78-3.19a13.07,13.07,0,0,0-4.5-3.6,32.69,32.69,0,0,0-26-1.92,3.4,3.4,0,0,1-4.12-1.49c-.6-1.07-1.21-2.9-2.38-3.55-1-.56-2.51,0-3.62-.11-3.49-.3-6.64,1.95-10.07,2.66-4.73,1-9.85-.15-14.67-.5-2.63-.2-4.81-1.23-7.44-1.48-3.41-.32-7.29.13-10.7-.28a.15.15,0,0,1-.11-.2,5,5,0,0,1,4-2.54c1.71-.23,3.44,0,5.16-.08,3.63-.24,6.93-2.13,10.43-3.14,2.76-.79,5.65-1,8.47-1.6,6-1.22,11.64-3.93,17.63-5.29s12.86-1.11,17.49,2.91c1.12,1,2.15,2.18,3.59,2.51,2,.47,4-1,5.75-2.13a20.92,20.92,0,0,1,20.39-.87,21.08,21.08,0,0,0,4.84,2.26h0Z"/><path class="cls-3" d="M1360.6,201.46a9,9,0,0,1,1.08-1.06c.44-.19.86-.39,1.27-.6a6.84,6.84,0,0,0,1.12-.69,1.88,1.88,0,0,0,.37-.39c0-.13.09-.17,0-.25s0-.09-.09-.14a.53.53,0,0,0-.19-.17L1364,198l-.31-.18-1.23-.72-1.23-.72c-.33-.37-.67-.74-1-1.15a13.84,13.84,0,0,1,1.48.29l1.23.72,1.24.72.3.18.35.24a1.3,1.3,0,0,1,.33.3,1.12,1.12,0,0,1,.28.45,1,1,0,0,1,.07.59,1.24,1.24,0,0,1-.18.52,2.71,2.71,0,0,1-.6.65,7.47,7.47,0,0,1-1.29.81c-.44.23-.88.43-1.31.63S1361.11,201.42,1360.6,201.46Z"/><path class="cls-3" d="M1379.36,213.65a4.64,4.64,0,0,1,.42-1.77,5.52,5.52,0,0,1,1.26-1.39,3.58,3.58,0,0,1,1.84-.7,2.61,2.61,0,0,1,2,.6l-.83.37,0-2.59v-.64a1.44,1.44,0,0,1,.06-.65c.14-.43.28-.86.45-1.29.17.43.3.87.43,1.3a1.43,1.43,0,0,1,.06.65v.64l0,2.59h0a.49.49,0,0,1-.5.49.49.49,0,0,1-.33-.13,2.12,2.12,0,0,0-2.54.15,4.32,4.32,0,0,0-1,1.14A12.28,12.28,0,0,1,1379.36,213.65Z"/><path class="cls-8" d="M1595.63,163.58c-5.91-1.84-12.08-4.86-18-3a16.21,16.21,0,0,1-3.81,1.09c-2.55.14-4.7-1.72-7-2.84-5.23-2.55-11.43-1.23-17.22-1.84a6.07,6.07,0,0,1-3.2-1.05,10.48,10.48,0,0,1-1.9-2.6c-2.24-3.34-6.32-4.87-10.18-6-5.83-1.73-12-3.05-17.95-1.62-4.87,1.18-9.1,4.12-13.19,7l-9.28,6.51a12.24,12.24,0,0,1-4.25,2.2c-2.61.56-5.22-.64-7.79-1.35s-5.81-.7-7.34,1.48c8,0,13.92,7.53,21.66,9.34a4.86,4.86,0,0,1,2.31.92,8,8,0,0,1,1.13,1.91c1.37,2.38,4.47,3,7.19,3.3l24.51,3.07c1.34.17,3,.2,3.72-1,.32-.52.37-1.19.74-1.68a2.79,2.79,0,0,1,2-.89c3.86-.53,8,.45,11.56-1.13a9.43,9.43,0,0,1,2.69-1,12.92,12.92,0,0,1,3.18.5,5.84,5.84,0,0,0,6.1-3.58,3.43,3.43,0,0,1,.73-1.42,2.63,2.63,0,0,1,1.81-.43c3.31.07,6.79.41,9.76-1.06,3.2-1.59,5.34-5.11,8.82-6,4.88-1.2,9.39,3.45,14.41,3.62,1.18,0,2.35-.17,3.52-.06a31.92,31.92,0,0,1,3.93,1c2,.46,6.1.65,7.4-1.25-1.22-1.27-5.52-.32-7.26-.46A39.72,39.72,0,0,1,1595.63,163.58Z"/><path class="cls-3" d="M1416.18,165.91a42.74,42.74,0,0,0-6-3.44,29.1,29.1,0,0,0-3.2-1.26c-1.09-.35-2.19-.62-3.3-.87a17.31,17.31,0,0,0-13,2.07,12.06,12.06,0,0,0-5.71,11.34,12.44,12.44,0,0,0,.72,3.25c.09.27.22.51.32.77a2,2,0,0,1,.29,1.09,1.44,1.44,0,0,1-.73,1l-.73.49-5.78,3.87.09-.08a1.45,1.45,0,0,1-.87.45,2.16,2.16,0,0,1-.85-.09,3.22,3.22,0,0,1-1.27-.78,3.75,3.75,0,0,0-.91-.67,1.17,1.17,0,0,0-.9,0,8.73,8.73,0,0,0-2,1.35,4,4,0,0,1-1.3.68,2,2,0,0,1-1.64-.23c-.93-.65-1.19-1.54-1.76-2a3.65,3.65,0,0,0-2.06-.87,11.8,11.8,0,0,0-4.84.83l-.33.12-.22-.27a32.5,32.5,0,0,0-4.26-4.28,36.12,36.12,0,0,0-5-3.45,34.09,34.09,0,0,0-11.3-4.45,30.45,30.45,0,0,1,16.91,7.13,33.87,33.87,0,0,1,4.39,4.41l-.55-.15a12.64,12.64,0,0,1,5.28-.88,4.51,4.51,0,0,1,2.62,1.12c.75.68,1.09,1.57,1.62,1.89s1.16.08,1.82-.42a9.47,9.47,0,0,1,2.28-1.49,2.17,2.17,0,0,1,1.62,0,4.83,4.83,0,0,1,1.17.84,2.49,2.49,0,0,0,.9.58.66.66,0,0,0,.69-.08l0,0,0,0,5.78-3.87c.45-.3,1.12-.73,1-.78a1.54,1.54,0,0,0-.21-.56c-.11-.28-.25-.55-.34-.84a12.91,12.91,0,0,1-.78-3.52,13.27,13.27,0,0,1,1.33-7,13.42,13.42,0,0,1,4.83-5.25,18.36,18.36,0,0,1,13.76-2.22,24.16,24.16,0,0,1,6.55,2.6A36.68,36.68,0,0,1,1416.18,165.91Z"/><path class="cls-3" d="M1325,174.11a2.58,2.58,0,0,0,.69-.66,3.77,3.77,0,0,0,.71-.42A11.71,11.71,0,0,1,1328,172a7,7,0,0,1,1.87-.67,8.39,8.39,0,0,1,1-.13,3.7,3.7,0,0,1,1,.51c-.33.17-.62.32-.9.49a6.18,6.18,0,0,0-.85.11,6.57,6.57,0,0,0-1.61.57,12.87,12.87,0,0,0-1.48,1,6.09,6.09,0,0,1-.87.53A1.83,1.83,0,0,1,1325,174.11Z"/><path class="cls-3" d="M1611.57,165.54a11.34,11.34,0,0,1-6.7,1.48.27.27,0,0,1-.22-.15l0,0c-.77-1.46-2.7-1.91-4.25-1.59a7.73,7.73,0,0,0-1.21.32c-.2.07-.38.15-.6.24a4.45,4.45,0,0,1-.7.24,5.4,5.4,0,0,1-2.93-.05,5,5,0,0,1-1.34-.65l-1.1-.76a19.06,19.06,0,0,0-2.27-1.31,13.2,13.2,0,0,0-5-1.35,9.34,9.34,0,0,0-5,1,17,17,0,0,0-4,3.32,19.24,19.24,0,0,1-4.2,3.54,8.32,8.32,0,0,1-2.66,1,5.87,5.87,0,0,1-2.91-.18c-.91-.31-1.7-.77-2.48-1a2.66,2.66,0,0,0-2.2.1,1.17,1.17,0,0,0-.59.71,4.85,4.85,0,0,0-.08.61,1.47,1.47,0,0,1-.41.89,3.43,3.43,0,0,1-1.43.6,2.69,2.69,0,0,0-.95.61c-.61.56-1.11,1.31-1.86,2a3.05,3.05,0,0,1-1.4.74,2.91,2.91,0,0,1-1.59-.16,13.3,13.3,0,0,0-2.37-1c-.68-.11-1.31.36-2,1a7.46,7.46,0,0,1-1.14.88,3.57,3.57,0,0,1-1.45.49,6.57,6.57,0,0,1-2.86-.42c-1.72-.6-3.37-1.36-5-1.17a4.94,4.94,0,0,0-3.71,3,5.92,5.92,0,0,1-1.31,2.39,5.18,5.18,0,0,1-2.29,1.42,5.23,5.23,0,0,0,3.14-4,5.63,5.63,0,0,1,4-3.78,5.33,5.33,0,0,1,2.87.24c.9.26,1.73.62,2.56.89a5.63,5.63,0,0,0,2.41.38,3.64,3.64,0,0,0,2.06-1.13,7.41,7.41,0,0,1,1.17-.87,2.55,2.55,0,0,1,1.59-.32,12.1,12.1,0,0,1,2.59,1,1.79,1.79,0,0,0,2-.4c.61-.52,1.12-1.27,1.83-1.94a3.79,3.79,0,0,1,1.31-.82,3.48,3.48,0,0,0,1-.36c.13-.07.1-.45.22-1a2.2,2.2,0,0,1,1.06-1.33,3.7,3.7,0,0,1,3-.18c.92.31,1.7.77,2.49,1a5.82,5.82,0,0,0,4.75-.75,18.61,18.61,0,0,0,4-3.37,17.73,17.73,0,0,1,4.25-3.51,10.41,10.41,0,0,1,5.47-1.1,14.14,14.14,0,0,1,5.35,1.44,20.83,20.83,0,0,1,2.39,1.37l1.11.77a3.85,3.85,0,0,0,1.08.52,4.25,4.25,0,0,0,2.37,0,2.73,2.73,0,0,0,.57-.19l.65-.26a7,7,0,0,1,1.38-.39,5.16,5.16,0,0,1,2.88.35,3.84,3.84,0,0,1,2.11,2l-.25-.18A11.47,11.47,0,0,0,1611.57,165.54Z"/><path class="cls-3" d="M1602.94,137.83c-.35.16-.71.32-1.08.46l-1.13.33c-.77,0-1.54,0-2.31,0-1.53-.08-3-.29-4.53-.51s-3-.42-4.44-.52c-.74-.05-1.47-.06-2.21,0l-1.11-.17c-.38,0-.76-.06-1.15-.11a13.83,13.83,0,0,1,2.23-.72c.77,0,1.54,0,2.31,0,1.52.11,3,.32,4.51.53s3,.42,4.44.5c.74,0,1.47,0,2.2,0l1.12.13Z"/><path class="cls-8" d="M1941.1,169.89c-11.81-4.46-23.27-8-35.87-8.82-5-.3-10,0-15-.58s-9.68-1.93-14.59-2.15c-6.61-.3-13.13,1.52-19.39,3.66-5.08,1.74-10.21,3.77-14.22,7.33a18,18,0,0,0-5.8,9.7,3.64,3.64,0,0,1-4.29,2.87,21.43,21.43,0,0,0-11.51,1.28c-5.1,1.88-9.76,4.88-14.94,6.54-11.45,3.66-23.78.42-35.64-1.58-13.66-2.3-27.91-2.86-41.18,1.13-7.17,2.15-14.06,5.62-21.53,6.15-6.49-3.15-14.63-1.68-21.84-1.88a22.65,22.65,0,0,1-4.51-.49c-2.37-.58-4.51-1.82-6.83-2.57-4.43-1.44-9.23-1-13.88-.59l-5.9.55c-6.84.64-13.71,1.28-20.55.76a3,3,0,0,0-1.63.36c-8.8,4.89-19,5.82-29,4.44a5.19,5.19,0,0,0-3.31.57c-2.47,1.45-1.37,3.64-1.7,5.58-.47,2.73-3.63,4.19-6.39,4.15s-5.44-1.08-8.2-1.25c-6.54-.42-12.53,4-19.07,4.22a50.08,50.08,0,0,1-7.11-.63c-10.59-1.16-21.59,1.33-29.91,8,18.57-.23,37.14.26,55.71,0,9.12-.11,15.61.32,24.7.06,4.31-.12,11-1.56,15.29-1.63,14.75-.24,29.83.47,44.57,0q39.46-1.23,78.85-3.86a23,23,0,0,0,7-1.62c1.52-.61,3.46-1.24,4.48-2.5s1-3,1.7-4.3c.27-.55,1.4-.37,1.57-1,2.62-.61,5,.7,7.67,1.4,2.93.77,6.1,1,8.94,1.9a80,80,0,0,0,18.76,4,34.9,34.9,0,0,0,11.44-1.4c4.28-1.28,7.77-4.53,12.08-5.71,4.06-1.12,8.36-.27,12.5.48,6,1.11,11.92,1.11,17.8,1.51,7,.48,14,1.27,21.29,1.48,9.63.28,23.44,2.32,33.08,2.08,6.38-.16,9.7-1.36,16-1.54a17.48,17.48,0,0,0,9.49-3.25c3.11-2.18,6.63-3.54,8.16-7C1941.76,188.1,1943.66,177.94,1941.1,169.89Z"/><path class="cls-8" d="M1770,157c-1.7-1.44-3-3.3-4.66-4.77a13.78,13.78,0,0,0-7.51-3.33c-3.84-.44-8.27.61-11.21-1.91-2-1.69-2.61-4.56-4.56-6.29s-4.77-2-7.38-2.11c-.49,5.46,6.38,10.13,4.61,15.31-1.13,3.29-5.08,4.47-8.48,5.2l-7.17,1.53a11.82,11.82,0,0,1-3.64.38c-2.12-.23-4-1.6-6-2.12-2.94-.75-6,.26-8.91,1.11a86.07,86.07,0,0,1-11.35,2.51,16.69,16.69,0,0,0-5.59,1.47,5,5,0,0,0-2.87,4.67c.3,2.67,3.24,4.1,5.83,4.79a41.78,41.78,0,0,0,17.31.85c5.78-.94,11.85-3.07,17.29-.89,1.67.66,3.18,1.71,4.9,2.24a17.3,17.3,0,0,0,6.22.37,4.15,4.15,0,0,0,2-.45,7,7,0,0,0,1.43-1.54c1.88-2.17,5.21-2.37,8-1.69s5.4,2,8.24,2.45a36.8,36.8,0,0,0,6.47,0,80.26,80.26,0,0,1,15,1.39c2.63.4,5.25.81,7.89,1,1.69.16,6,1.08,7.47.17,2.65-1.62-1.55-8.44-3-10.26-2.24-2.81-5.65-4.09-9-5.17C1777.38,160.6,1773.16,159.66,1770,157Z"/><path class="cls-3" d="M1586.64,132.3a19.57,19.57,0,0,1-2.22.68c-.76,0-1.53,0-2.3,0a10.42,10.42,0,0,1-4.51-1.23c-1.36-.78-2.55-1.63-3.82-2.44l-1.89-1.22c-.53-.55-1.09-1.07-1.61-1.65.74.24,1.44.54,2.16.81l1.88,1.22c1.26.8,2.52,1.68,3.76,2.4a9.29,9.29,0,0,0,4.09,1.11,17.8,17.8,0,0,0,2.19,0C1585.11,132.08,1585.87,132.17,1586.64,132.3Z"/><path class="cls-3" d="M1562.16,126.9c-1.07,0-2.11,0-3.15.14a24.35,24.35,0,0,0-3.08,0,26.2,26.2,0,0,0-3,.38c-.5.09-1,.22-1.6.27a3.34,3.34,0,0,1-1.79-.26,3.29,3.29,0,0,1-1.35-1.2,13,13,0,0,1-.82-1.4,8.81,8.81,0,0,0-1.85-2.34l-2.26-2.17c-.65-.84-1.31-1.66-1.93-2.53.9.58,1.74,1.21,2.62,1.81l2.27,2.17a9.62,9.62,0,0,1,2,2.58,4.7,4.7,0,0,0,1.72,2.18,4.79,4.79,0,0,0,2.79-.09,25.91,25.91,0,0,1,3.17-.4,31.05,31.05,0,0,1,3.2,0A19.89,19.89,0,0,1,1562.16,126.9Z"/><path class="cls-3" d="M1702.17,125.05a3.19,3.19,0,0,1-1,.64,6.7,6.7,0,0,1-1.1-.07,5.65,5.65,0,0,1-2.06-.77c-.63-.4-1.13-.87-1.64-1.24a3.64,3.64,0,0,0-.76-.47,2.7,2.7,0,0,0-.77-.68,2,2,0,0,1,1.18-.23,5.56,5.56,0,0,1,1,.57c.57.43,1,.88,1.57,1.2a4.61,4.61,0,0,0,1.69.63,3.94,3.94,0,0,0,.91.05A9.78,9.78,0,0,0,1702.17,125.05Z"/><path class="cls-8" d="M1627.5,178.36a24.05,24.05,0,0,0-13.74,1c-2.11.82-4.13,2-6.36,2.38-2.42.46-4.94.06-7.38.45-3.39.54-6.34,2.56-9.43,4.07a33,33,0,0,1-12.84,3.28,11.32,11.32,0,0,0-3,.36,7.11,7.11,0,0,0-2.72,1.81c-1.4,1.38-3.35,3.17-4.06,5,1.43-.23,2.63.23,4.06.34a49.2,49.2,0,0,1,7.91,1c2.3.57,5,1.91,7.11,1.25,4.35-1.36,6.84-6.21,11.12-7.79,2.65-1,5.58-.55,8.41-.47a33.31,33.31,0,0,0,7-.52,6.16,6.16,0,0,0,3.07-1.22,11,11,0,0,0,1.7-2.47c2.79-4.36,8.7-5.4,13.87-5.3a86,86,0,0,1,9.2.91A79.13,79.13,0,0,0,1627.5,178.36Z"/><path class="cls-3" d="M1686.83,119.54a10.63,10.63,0,0,1-6.37.29,16.11,16.11,0,0,1-5.43-3.48,22.49,22.49,0,0,0-4.94-3.66,8.64,8.64,0,0,0-5.83-.47,18,18,0,0,0-2.92.93,15.36,15.36,0,0,1-3.09,1,4.68,4.68,0,0,1-1.75,0,4.54,4.54,0,0,1-1.61-.69,24.27,24.27,0,0,1-2.48-2.07c-1.56-1.42-3.05-2.91-4.55-4.38s-2.78-3.15-4.24-4.67c1.73,1.22,3.33,2.6,4.94,4s3,3,4.53,4.36a24.65,24.65,0,0,0,2.35,2,3.41,3.41,0,0,0,2.65.56,14.77,14.77,0,0,0,2.87-1,19.36,19.36,0,0,1,3.08-1,11.53,11.53,0,0,1,3.27-.29,8.91,8.91,0,0,1,3.21.83,23.62,23.62,0,0,1,5.16,3.81,15.22,15.22,0,0,0,5.1,3.29A10.87,10.87,0,0,0,1686.83,119.54Z"/><path class="cls-3" d="M1661.26,176.39a1.61,1.61,0,0,0-.72.69,5.89,5.89,0,0,0-.78.57,9.89,9.89,0,0,1-1.83,1.15,10.61,10.61,0,0,1-2,.72,9.38,9.38,0,0,1-1.06.18,4.67,4.67,0,0,1-1.09-.43c.34-.21.66-.37,1-.56a8.8,8.8,0,0,0,2.79-.82,8.29,8.29,0,0,0,1.65-1,7.62,7.62,0,0,1,.89-.65A1.54,1.54,0,0,1,1661.26,176.39Z"/><path class="cls-3" d="M1647.25,181.12a16.54,16.54,0,0,1-4.5,1.49,14.86,14.86,0,0,1-4.8-.21c-3.1-.75-6-2-9-2.06a8.66,8.66,0,0,0-4.32.86,7.06,7.06,0,0,0-1.73,1.34,7.17,7.17,0,0,1-2,1.56,3.15,3.15,0,0,1-1.35.26c-.41,0-.5,0-.72.23a.8.8,0,0,0-.28.64,8.45,8.45,0,0,1,.06,1.25,4.53,4.53,0,0,1-.77,2.48,4,4,0,0,1-2.14,1.51,6.71,6.71,0,0,1-2.5.28,11.41,11.41,0,0,1-2.42-.37,20,20,0,0,0-4.53-.84,27.35,27.35,0,0,0-4.61.12,14.75,14.75,0,0,0-2.24.38,12.07,12.07,0,0,0-2.1.79,11.68,11.68,0,0,0-3.56,2.72,11.1,11.1,0,0,0-1.32,1.82c-.18.34-.36.65-.51,1a6.23,6.23,0,0,1-.58,1.11c-2.73,3.23-6.74-.27-8.91,2.47a2.55,2.55,0,0,1,1.88-1.36,13.66,13.66,0,0,1,2.37-.22c1.52,0,3.21-.21,3.82-1.44.34-.58.66-1.35,1.07-2.06a11.29,11.29,0,0,1,1.43-2,12.84,12.84,0,0,1,3.86-3,14.35,14.35,0,0,1,2.29-.86,17.17,17.17,0,0,1,2.4-.4,27.23,27.23,0,0,1,4.78-.13,19.27,19.27,0,0,1,2.39.3c.79.14,1.6.39,2.31.57a11.37,11.37,0,0,0,2.22.34,5.7,5.7,0,0,0,2.15-.23,3.11,3.11,0,0,0,1.64-1.13,3.58,3.58,0,0,0,.58-1.95,8.32,8.32,0,0,0,0-1.1,1.9,1.9,0,0,1,1.26-1.9,2.53,2.53,0,0,1,.73-.08,2.16,2.16,0,0,0,.94-.17,6.4,6.4,0,0,0,1.68-1.36,8,8,0,0,1,2-1.51,9.38,9.38,0,0,1,4.8-1c3.29.07,6.28,1.37,9.26,2.07a14.51,14.51,0,0,0,4.52.66A18.66,18.66,0,0,0,1647.25,181.12Z"/><path class="cls-3" d="M1735.36,175.68a5,5,0,0,1-3.51,1.24,10.28,10.28,0,0,1-3.75-.79c-2.29-1.11-4.28-2.64-6.57-3.19s-4.68.08-7,.88a27.56,27.56,0,0,1-7.28,1.89c-1.26.09-2.51.06-3.74,0a7.9,7.9,0,0,0-1.73.1,1.53,1.53,0,0,0-1.06.88,9.2,9.2,0,0,0-.57,1.66l-.53,1.78-1,3.56a6.31,6.31,0,0,1-2,3.42,6.52,6.52,0,0,1-3.75,1.24,19,19,0,0,1-3.77-.45,5.19,5.19,0,0,1-1.77-.73,1.89,1.89,0,0,1-.93-1.58,1.75,1.75,0,0,0,1.07,1.34,5.1,5.1,0,0,0,1.72.46,19,19,0,0,0,3.62,0,5.57,5.57,0,0,0,3.19-1,5.36,5.36,0,0,0,1.63-2.92l1-3.56.53-1.78a10.38,10.38,0,0,1,.64-1.84,3,3,0,0,1,.69-.88,2.63,2.63,0,0,1,1-.5,8.54,8.54,0,0,1,2-.13c1.24,0,2.47,0,3.67,0a26.47,26.47,0,0,0,7-1.84,23.18,23.18,0,0,1,3.66-1,10,10,0,0,1,3.88.08c2.57.63,4.59,2.24,6.75,3.25a9.8,9.8,0,0,0,3.36,1.16A5,5,0,0,0,1735.36,175.68Z"/><path class="cls-3" d="M1675.6,187.27l.42-.52.4-.06a3.15,3.15,0,0,0,.77-.25,3.36,3.36,0,0,0,.71-.41,2.51,2.51,0,0,0,.31-.26l.66,0a2.36,2.36,0,0,1,0,.7l-.4.33a5.3,5.3,0,0,1-.89.52,4.66,4.66,0,0,1-1,.31,4.5,4.5,0,0,1-.51.08A1.92,1.92,0,0,1,1675.6,187.27Z"/><path class="cls-3" d="M1756.48,201.21a6.41,6.41,0,0,1-3.1.55,20.12,20.12,0,0,1-3.14-.42,10.06,10.06,0,0,0-5.88-.31c-1,.27-1.93.67-2.95,1a25.1,25.1,0,0,1-3.08.74,26.34,26.34,0,0,1-6.33.34.5.5,0,0,1-.47-.53.51.51,0,0,1,.42-.46,14.83,14.83,0,0,0,5.07-1.82l-.23.32s0,0,0,0a.67.67,0,0,0-.27-.13,1.47,1.47,0,0,0-.42-.06,2.92,2.92,0,0,0-.48,0l-2.18.19-2.17.19a2.74,2.74,0,0,1-1.31-.07,2,2,0,0,1-1-1,5.84,5.84,0,0,0-1.28-1.56,9.12,9.12,0,0,0-1.64-1.23,7,7,0,0,0-4.1-.89,7,7,0,0,1,4.41.22,6.19,6.19,0,0,1,2,1.14,7.83,7.83,0,0,1,1.47,1.82c.18.35.32.56.45.59a2.27,2.27,0,0,0,.85,0l2.17-.2,2.18-.19a5.09,5.09,0,0,1,.6,0,2.5,2.5,0,0,1,.66.09,1.74,1.74,0,0,1,.69.37,1,1,0,0,1,.3,1v0a.51.51,0,0,1-.22.29,15.88,15.88,0,0,1-5.42,2l0-1a25.26,25.26,0,0,0,6.08-.32,26.75,26.75,0,0,0,3-.71c1-.29,1.93-.69,3-1a8.35,8.35,0,0,1,3.26-.33,22.65,22.65,0,0,1,3.14.61C1752.45,201,1754.41,201.72,1756.48,201.21Z"/><path class="cls-3" d="M1771.13,175.21c.2-.17.37-.28.54-.4.13,0,.27.05.41.08s.56.07.84.09.56,0,.85,0h.42c.15.14.3.28.47.46a2.89,2.89,0,0,1-.42.53l-.46,0-.93,0c-.31,0-.62-.06-.92-.1l-.46-.08A3.27,3.27,0,0,1,1771.13,175.21Z"/><path class="cls-3" d="M1782.66,176.89a3.6,3.6,0,0,1,.53-.51h3.17a4.1,4.1,0,0,1,.53.5,4.93,4.93,0,0,1-.53.5h-3.17A4.1,4.1,0,0,1,1782.66,176.89Z"/><path class="cls-3" d="M1796.88,178.32a12.9,12.9,0,0,0,4.36-2.16,26,26,0,0,0,3.55-3.33,92.92,92.92,0,0,1,7-7,57.29,57.29,0,0,1,17.46-9.42,111.91,111.91,0,0,1,19.22-4.89q4.9-.79,9.85-1.17c3.32-.08,6.62-.05,9.92.19-3.3.16-6.58.4-9.84.81-3.27.24-6.53.63-9.77,1.15a111.44,111.44,0,0,0-19,4.85,56.22,56.22,0,0,0-17.16,9.25,89.29,89.29,0,0,0-7,6.93,26.86,26.86,0,0,1-4,3.07A12.33,12.33,0,0,1,1796.88,178.32Z"/><path class="cls-3" d="M1814.31,170.38a15.38,15.38,0,0,1,2.12-3.23,22.44,22.44,0,0,1,3-2.38,42,42,0,0,1,6.79-3.51c2.34-1,4.71-1.85,7.07-2.76l3.55-1.34c1.24-.29,2.46-.61,3.71-.87-1.11.64-2.25,1.2-3.37,1.81l-3.53,1.34c-2.35.9-4.73,1.75-7,2.74a41.17,41.17,0,0,0-6.63,3.43,20.64,20.64,0,0,0-2.9,2.28A20,20,0,0,0,1814.31,170.38Z"/><path class="cls-3" d="M1823.41,184.11a12.31,12.31,0,0,0,2.08-1.38,7.63,7.63,0,0,0,1.86-1.42,1,1,0,0,0,.25-.85,3.94,3.94,0,0,1,.18-1.41,6.15,6.15,0,0,1,1.55-2.24A19.88,19.88,0,0,0,1831,175c.5-.64,1-1.36,1.51-2a8.39,8.39,0,0,1,2-1.79,7.38,7.38,0,0,1,2.57-.62,8.9,8.9,0,0,0-2,1.45,7.55,7.55,0,0,0-1.75,1.59c-.5.62-1,1.33-1.49,2a20.1,20.1,0,0,1-1.75,1.9,5.23,5.23,0,0,0-1.31,1.87,2.66,2.66,0,0,0-.13,1.08,3.12,3.12,0,0,1-.08.76,2,2,0,0,1-.41.74,9,9,0,0,1-2.12,1.65A7.53,7.53,0,0,1,1823.41,184.11Z"/><path class="cls-3" d="M1934.21,157.16a3.66,3.66,0,0,0-3.38,1.37c-1,.8-1.71,1.94-2.76,2.9a9.24,9.24,0,0,1-3.7,2,17.29,17.29,0,0,1-4.09.61c-1.36.06-2.71,0-4.06,0a13.42,13.42,0,0,1-2.07-.2,9.15,9.15,0,0,1-2-.64,13.41,13.41,0,0,0-3.69-1.21,12.8,12.8,0,0,0-3.93-.46,11.63,11.63,0,0,1,4.09-.53,14.66,14.66,0,0,1,3.92,1.28,9.3,9.3,0,0,0,3.74.76c1.33,0,2.67.08,4,0,2.6-.11,5.29-.64,7.16-2.36.93-.85,1.69-2,2.77-2.93a5.5,5.5,0,0,1,2-.86A2.89,2.89,0,0,1,1934.21,157.16Z"/><path class="cls-3" d="M1883.6,160.49c-1,.19-1.93.31-2.9.44l-2.88-.07-5.76-.13c-1,0-1.94-.07-2.85,0a6.61,6.61,0,0,0-2.61.65l-2.66,1.11c-1,.22-1.89.47-2.85.65.81-.55,1.64-1,2.47-1.57l2.66-1.12a7.67,7.67,0,0,1,3-.72c1,0,1.94,0,2.91,0l5.77.13,2.88.06C1881.68,160.09,1882.64,160.26,1883.6,160.49Z"/><path class="cls-3" d="M1903.55,150c.33-.8.71-1.57,1-2.35a10.21,10.21,0,0,0,1.06-2.18c.25-.76.42-1.59.67-2.43a14.17,14.17,0,0,1,1-2.41,4.72,4.72,0,0,0,.5-2.25v-5.08c.16-.85.29-1.69.49-2.54.2.84.33,1.69.51,2.54v5.09a5.84,5.84,0,0,1-.59,2.66,12.84,12.84,0,0,0-1,2.27c-.23.79-.4,1.63-.68,2.47a11.71,11.71,0,0,1-1.15,2.39A17,17,0,0,1,1903.55,150Z"/><path class="cls-3" d="M1891.92,153.49l.06-.68a2.21,2.21,0,0,0,.32-.29,3.94,3.94,0,0,0,.52-.68,3.47,3.47,0,0,0,.36-.78,2.77,2.77,0,0,0,.12-.41l.57-.36a2.32,2.32,0,0,1,.41.59c0,.17-.09.34-.15.51a4.79,4.79,0,0,1-.46,1,4.46,4.46,0,0,1-.65.85c-.12.13-.25.25-.38.37A2,2,0,0,1,1891.92,153.49Z"/><path class="cls-8" d="M1824.82,114.65c.46,1.53-1.39,2.83-3,3.13a5.77,5.77,0,0,1-5.77-2.43c-1.25-1.91-.63-4.35-.8-6.64a48.44,48.44,0,0,0-2.73-13.14c-1-3-3.53-7.91-5.78-10.08a22.1,22.1,0,0,0-5.53-4.26c-4.39-1.93-8.76-2.62-13.33-4.1-.34-.12-.68-.23-1-.38-.68-.33-2.65-.33-3.27-.76a28,28,0,0,0-3.2-1.52c-.48-.26-1-1.25-1.67-1.46-3.89-1.23-7.9-4.36-11.52-6.24-4.21-2.18-8-3.15-12.5-4.66a41.61,41.61,0,0,0-19.56-1.68,4,4,0,0,0-1.62.51,2.9,2.9,0,0,0-1,2.72,1.25,1.25,0,0,0,1.34,1.12A28.41,28.41,0,0,1,1750.2,69a4.39,4.39,0,0,1,1.65,1.52c1,1.89-.72,4.64.72,6.23.7.77,1.84.87,2.82,1.2,2.3.77,3.85,2.88,5.13,4.94a64.79,64.79,0,0,1,5.72,11.64c-4.82-3.15-10-6.41-15.8-6.23a28.38,28.38,0,0,0-8.82,2.21L1732,94.07c.14,2.43,3.26,3.18,5.6,3.83a15.7,15.7,0,0,1,9.52,7.66,3,3,0,0,1,.47,1.62c-.1,1.5-2,2.23-3.37,2.39a4.91,4.91,0,0,0-2,.6c-2.56,1.53-1.11,4.36.48,6.1,1.35,1.47,3,3.29,2.36,5.19-.34,1.1-1.37,1.94-1.46,3.08,2.56,1.11,5.23-1.05,7.75-2.26,7.18-3.46,16.78.69,23.21-4a12.87,12.87,0,0,1,2.26-1.57,7,7,0,0,1,2.68-.46,16.33,16.33,0,0,1,6.25.86c2.3.88,4.23,2.49,6.39,3.67,3,1.67,6,3.2,9.47,3s7.73-2.19,11.18-1.32c1.74.45,3.33,1.41,5.1,1.71a7.33,7.33,0,0,0,7.22-3.12c1.53-2.32,5.14-3.36,3.62-5.68-.1-1-2-3-1.15-3.45Z"/><path class="cls-3" d="M1898.47,152a1.39,1.39,0,0,0-.13-.77,2,2,0,0,0,.06-.61c0-.45-.09-1-.05-1.53a5.23,5.23,0,0,1,.36-1.61,5.17,5.17,0,0,1,.38-.74,2.43,2.43,0,0,1,.87-.34,8.54,8.54,0,0,0,0,.86,4.2,4.2,0,0,0-.3.6,3.84,3.84,0,0,0-.29,1.29c0,.42,0,.91.05,1.45a3.39,3.39,0,0,1-.08.88A1.27,1.27,0,0,1,1898.47,152Z"/><path class="cls-3" d="M1885.25,151.8l.54-.56a4.9,4.9,0,0,0,.55-.13,4.62,4.62,0,0,0,1-.47,4.67,4.67,0,0,0,.9-.69c.13-.14.26-.28.38-.43l.74-.21a2.58,2.58,0,0,1,0,.83,5.53,5.53,0,0,1-.46.52,5.28,5.28,0,0,1-1.09.84,5.2,5.2,0,0,1-1.25.56c-.23.07-.45.12-.68.17A2.5,2.5,0,0,1,1885.25,151.8Z"/><path class="cls-3" d="M1787.29,82.65a4.24,4.24,0,0,1,2-.32,7,7,0,0,1,1.87.88,8.81,8.81,0,0,1,2.66,3,21,21,0,0,1,1.55,3.6q.31.93.57,1.86a19.06,19.06,0,0,1,0,2L1795,92c-.17-.61-.35-1.21-.56-1.8a19.76,19.76,0,0,0-1.46-3.43,7.94,7.94,0,0,0-2.36-2.68,5.36,5.36,0,0,0-1.59-.74A5.58,5.58,0,0,0,1787.29,82.65Z"/><path class="cls-8" d="M1472.23,115.82c1.18-1.74,2.24-3.66,4-4.83,3-2,7.45-1.49,9.78-4.24,1.71-2,1.57-5.06,3-7.3a8.16,8.16,0,0,1,5.4-3.37,24.45,24.45,0,0,1,6.51-.09c.59.05,1.22-.49,1.72-.17s1.75.39,2.17.84c1.66,1.8,3.71,2.73,5.62,4.25a9.06,9.06,0,0,1,2.25,3.31c.91,1.91,2.83,3.57,3.57,5.56s.3,4.31.51,6.41c.41,4.22-.85,8.86-4.24,11.41-3.22,2.44-7.59,2.53-11.63,2.52a24.23,24.23,0,0,1-8-.9c-1.42-.49-2.73-1.23-4.15-1.71a10.25,10.25,0,0,0-7.77.41,8.23,8.23,0,0,0-4.52,6.18c-.31,2.51.58,5.42-1,7.35a6.89,6.89,0,0,1-4,1.86c-2.54.56-5.41,1-7.59-.43a10.08,10.08,0,0,1-2.33-2.41c-1.9-2.46-3.87-5.08-4.32-8.17a2.89,2.89,0,0,1,.12-1.57c.52-1.15,2-1.31,3.26-1.67,2.08-.6.89-1.6,1.41-3s2.15-1.92,3.17-2.71A33.28,33.28,0,0,0,1472.23,115.82Z"/><path class="cls-3" d="M1793.12,96.3c-.17-.31-.31-.57-.47-.81a5,5,0,0,0-.11-.76,6.07,6.07,0,0,0-.5-1.47,4,4,0,0,0-.88-1.19,2.54,2.54,0,0,0-.58-.36,2.68,2.68,0,0,0-.63-.63,1.87,1.87,0,0,1,1-.29,3.21,3.21,0,0,1,.85.53,4.72,4.72,0,0,1,1.12,1.49,7.07,7.07,0,0,1,.59,1.71,8.47,8.47,0,0,1,.13.9A2.41,2.41,0,0,1,1793.12,96.3Z"/><path class="cls-3" d="M1737.72,126.91a1.93,1.93,0,0,0,1.63.8,11.37,11.37,0,0,0,1.92-.09,6.4,6.4,0,0,0,3.53-.72,3.37,3.37,0,0,0,1.14-1.3,9.22,9.22,0,0,1,1.16-1.71,7.76,7.76,0,0,1,3.5-2.29c1.38-.43,2.71-.35,3.89-.73a22.29,22.29,0,0,0,3.56-1.5,20,20,0,0,1,3.75-1.52,6.81,6.81,0,0,1,4,.48,6.93,6.93,0,0,0-3.78.49,18,18,0,0,0-3.56,1.45,23.3,23.3,0,0,1-3.72,1.56c-1.36.42-2.74.35-3.87.73a6.77,6.77,0,0,0-3.05,2,9,9,0,0,0-1,1.55,4.44,4.44,0,0,1-1.45,1.64,7.45,7.45,0,0,1-4.09.89,12.19,12.19,0,0,1-2-.39A2.1,2.1,0,0,1,1737.72,126.91Z"/><path class="cls-3" d="M1770.79,120.23a13.94,13.94,0,0,1,4.19-4.43,11.21,11.21,0,0,1,6-1.54,19.1,19.1,0,0,1,5.93,1.65,14.78,14.78,0,0,1,5.32,3.13c.73.73,1.37,1.5,2.09,2.12a8.92,8.92,0,0,0,2.41,1.49,9.19,9.19,0,0,0,5.61.45,56.08,56.08,0,0,0,5.7-1.74,11.69,11.69,0,0,1,6.07-.14,12,12,0,0,0-5.77,1.09,57.6,57.6,0,0,1-5.8,1.78,11.69,11.69,0,0,1-3.13.22,10,10,0,0,1-5.75-2.4c-.8-.69-1.45-1.48-2.14-2.16a13.62,13.62,0,0,0-5-2.91,18.45,18.45,0,0,0-5.61-1.58,10.13,10.13,0,0,0-5.47,1.41A14.93,14.93,0,0,0,1770.79,120.23Z"/><path class="cls-10" d="M1819.07,125.42a4,4,0,0,0,4.15-2.93c.33-1.34-.07-2.76.07-4.13,0-.26,0-.63,0-1"/><path class="cls-3" d="M1456.16,94.13a2,2,0,0,0,1.28-.95c.31-.46.54-1,.85-1.5a6.39,6.39,0,0,1,3-2.15c2.34-.84,4.8-.55,7.06-.41a17.11,17.11,0,0,0,3.36-.05,18.07,18.07,0,0,0,3.27-.78c1.06-.37,2.21-.73,3.18-1.17a4.08,4.08,0,0,0,1.42-.73c.42-.32.7-.87,1.13-1.28a10.17,10.17,0,0,1-.74,1.63,4.91,4.91,0,0,1-1.37,1.28c-1.13.51-2.2.83-3.31,1.22a20,20,0,0,1-3.45.83,19.19,19.19,0,0,1-3.55.05c-2.31-.16-4.6-.4-6.66.36a5.22,5.22,0,0,0-2.55,1.81c-.39.39-.78.85-1.25,1.25A2,2,0,0,1,1456.16,94.13Z"/><path class="cls-3" d="M1504.77,132.71a4.71,4.71,0,0,1-1.3-.05l-1-.59a9.47,9.47,0,0,0-2-1,7.67,7.67,0,0,0-2.16-.3c-.37,0-.75,0-1.13,0-.39-.13-.79-.24-1.19-.4a8.15,8.15,0,0,1,1.13-.6c.39,0,.8,0,1.2,0a8.25,8.25,0,0,1,2.45.35,10.43,10.43,0,0,1,2.2,1.06c.34.2.67.4,1,.57Z"/><path class="cls-3" d="M1491.19,126.66a10,10,0,0,1-3.68,1.35c-1.3.08-2.59.06-3.83.15a10.25,10.25,0,0,0-3.53.83,4.6,4.6,0,0,0-2.43,2.34,8.87,8.87,0,0,0-.41,3.57,29.81,29.81,0,0,1-.09,3.89,17.46,17.46,0,0,1-.77,3.87,5.4,5.4,0,0,1-1.23,1.65,2.16,2.16,0,0,1-1.87.6,2.1,2.1,0,0,0,1.49-.95,4.62,4.62,0,0,0,.67-1.64,16.68,16.68,0,0,0,.72-3.63,29.39,29.39,0,0,0,.08-3.76,9.51,9.51,0,0,1,.49-4,5.59,5.59,0,0,1,2.93-2.87,11.28,11.28,0,0,1,3.88-.92c1.31-.09,2.58-.06,3.83-.16A11.12,11.12,0,0,0,1491.19,126.66Z"/><path class="cls-3" d="M1552.37,167a7,7,0,0,1-1.53-.48c-.39-.35-.77-.71-1.13-1.09a11.79,11.79,0,0,1-2.79-5.49,13.73,13.73,0,0,1-.21-1.55,6.88,6.88,0,0,1,.51-1.53c.16.52.31,1,.49,1.46a10.87,10.87,0,0,0,.19,1.41,10.75,10.75,0,0,0,.94,2.69,11.06,11.06,0,0,0,1.61,2.34,11.85,11.85,0,0,0,1,1C1551.76,166.12,1552.06,166.53,1552.37,167Z"/><path class="cls-3" d="M1503.34,176.42l.58.15a1.43,1.43,0,0,0,.13.28,2.39,2.39,0,0,0,.34.51,2.5,2.5,0,0,0,.43.43,1.44,1.44,0,0,0,.25.18c0,.18,0,.37,0,.6a2,2,0,0,1-.58.24,2,2,0,0,1-.33-.24,4,4,0,0,1-.59-.57,4.45,4.45,0,0,1-.45-.68L1503,177A1.92,1.92,0,0,1,1503.34,176.42Z"/><path class="cls-3" d="M1505.18,172.8a2.76,2.76,0,0,1,1,.18l.63.62,1.25,1.23,1.25,1.23.63.62a8.53,8.53,0,0,1,.27,1c-.35-.07-.66-.17-1-.26l-.62-.62-1.25-1.23-1.25-1.23c-.21-.2-.42-.42-.63-.6S1505.31,173.13,1505.18,172.8Z"/><path class="cls-3" d="M1509,169.29a9.51,9.51,0,0,1,.9.48c.15.25.32.49.48.73.33.49.68,1,1,1.42s.74.9,1.13,1.34l.6.64c.09.32.19.63.27,1a5.17,5.17,0,0,1-1-.29l-.62-.66c-.41-.45-.8-.92-1.17-1.39s-.74-1-1.08-1.47l-.51-.75A5.83,5.83,0,0,1,1509,169.29Z"/><path class="cls-3" d="M1642.51,214.14l-1.32-.28a11.18,11.18,0,0,0-1.06-.61,18.06,18.06,0,0,0-2.29-1c-.78-.29-1.56-.6-2.34-1l-1.17-.53a12.21,12.21,0,0,1-.93-1c.47,0,.92,0,1.36.07l1.13.51c.75.36,1.53.67,2.33,1a20.23,20.23,0,0,1,2.37,1c.39.2.76.42,1.14.64A6.55,6.55,0,0,1,1642.51,214.14Z"/><path class="cls-3" d="M1636.8,207.75c.12-.25.24-.44.34-.64a3.66,3.66,0,0,0,.46-.18,6.2,6.2,0,0,0,.86-.5,5.73,5.73,0,0,0,.76-.64l.33-.36.71-.1a2.73,2.73,0,0,1,0,.75,5.11,5.11,0,0,1-.39.42,6.31,6.31,0,0,1-.89.75,6.67,6.67,0,0,1-1,.58l-.54.23A2.62,2.62,0,0,1,1636.8,207.75Z"/><path class="cls-10" d="M1366.86,196.57a12.46,12.46,0,0,0-5.42-5.61"/><path class="cls-8" d="M1443.29,189.71c10-.81,20.58,2.51,29.84-1.35,2.42-1,4.61-2.46,6.94-3.66a36.42,36.42,0,0,1,21.49-3.7c3.33.46,6.6,1.38,10,1.47,2.69.08,5.43-.38,8,.28s4.86,2.42,7.44,3.25c4.44,1.41,9.2-.06,13.75-1.08s9.82-1.41,13.37,1.61c1.46,1.25,2.49,3.39,1.6,5.1-1.28,2.47-4.87,1.85-7.65,2-3.78.25-7.24,2.66-11,2.55a5.78,5.78,0,0,0-2.66.21,5,5,0,0,0-1.62,1.61c-2.7,3.43-7,5.34-11.31,5.93-2.39.34-4.84-.74-7.25-1-2-.19-3.34-.11-5.26-.46a8.12,8.12,0,0,0-3,.58c-1.23.36-2,1.51-2.78,2.54a19.78,19.78,0,0,1-8.76,7.11,10.83,10.83,0,0,1-10.5-1.88c-1.24-1-2-2.42-3.62-2.65-1.34-.2-3.27,1.1-4.5,1.66a17.24,17.24,0,0,1-10.89,1.36,12.46,12.46,0,0,1-8.55-6.57,7.6,7.6,0,0,0-1.14-2.05,4.58,4.58,0,0,0-1.77-1.07,12.3,12.3,0,0,0-4.45-.77c-2.06,0-4.08.59-6.14.66-4.15.15-9.55-2.17-11.52-6.06C1429.11,191.09,1440.53,189.94,1443.29,189.71Z"/><path class="cls-8" d="M1419.58,169.23c.91-1.69,3-2.24,4.9-2.62l6.61-1.35c5.56-1.14,11.17-2.28,16.84-2.12,3.66.11,6.62,1.63,10,2.56-1.83,1-4.62.84-6.65,1l-10.73.85-10.51.84C1428.78,168.5,1420.06,168.34,1419.58,169.23Z"/><path class="cls-8" d="M1639.54,168c-1.37,0-2.93-.06-3.81-1.11-.45-.53-.65-1.26-1.11-1.78-1-1.11-2.76-.95-4.06-1.66-1.11-.6-1.83-1.81-3-2.31a6.47,6.47,0,0,0-2.71-.25,24.57,24.57,0,0,1-5.41-.45,1.94,1.94,0,0,1-1.51-.89c-.32-.74.36-1.54,1.07-1.94,2.28-1.29,5.57-1,7-3.24.52-.8,1.09-2,2-1.7.59.21.73,1,.82,1.58a13.71,13.71,0,0,0,1.18,4,5.42,5.42,0,0,0,1.86,2.38c2.37,1.49,5.73-.34,8.21,1,1.29.68,2.08,2.08,3.39,2.7s5.85,1.24,3.81,3.52C1646.39,168.74,1640.87,168,1639.54,168Z"/><path class="cls-8" d="M1307.17,186.13l-.24.18a18.35,18.35,0,0,1-9.59,3.26,21.57,21.57,0,0,0-4.41.31,4.17,4.17,0,0,0-3.21,2.73,1,1,0,0,1-.21.48.78.78,0,0,1-.56.15h-10.74a8.53,8.53,0,0,1-2-.16c-1.71-.42-3-1.85-4.1-3.2a2,2,0,0,0-.7-.61,2.07,2.07,0,0,0-.75-.12,30.69,30.69,0,0,0-8.07.38c-2.32.54-4.87,1.6-6.93.41a15.23,15.23,0,0,0-1.38-.87c-1-.45-2.13-.23-3.18-.44s-2.15-1.28-1.66-2.24c3.07-1.6,6.94,0,10.23-1a6.27,6.27,0,0,1,1.88-.52,4.57,4.57,0,0,1,1.75.44,52.24,52.24,0,0,0,6.16,1.77c2,.5,4.21,1,6.21.35a16,16,0,0,1,2.73-.94,5.51,5.51,0,0,0,2.23-.3,5.71,5.71,0,0,0,.93-.91,3.84,3.84,0,0,1,4.9-.38c.75.56,1.29,1.41,2.15,1.8a4.73,4.73,0,0,0,1.87.29l3,.06a5,5,0,0,0,1.68-.14,8.11,8.11,0,0,0,1.45-.71,16.15,16.15,0,0,1,6.33-1.31,7.93,7.93,0,0,1,2.47.25c1.26.31,1.16-.7,1.9.43C1307.65,186,1307.17,186.13,1307.17,186.13Z"/><path class="cls-10" d="M1205.72,213.27a2.21,2.21,0,0,1-1.82,1.9,327.13,327.13,0,0,1-56.65,2.49c-6.66-.28-13.32-.77-20-.72-19.89.14-39.58,5.06-59.47,4.43-6.39-.2-13-1.05-18.37-4.63a4.3,4.3,0,0,1-1.84-2.4c-.66-2.6,1.92-4.22,4.14-5.16a90.63,90.63,0,0,1,48-6.18,1.36,1.36,0,0,0,1.56-1.21,3,3,0,0,1,.94-1.89,7.15,7.15,0,0,1,3.55-1.36q9.2-1.66,18.52-2.5a13.56,13.56,0,0,0,3.54-.63,15.6,15.6,0,0,0,3.08-1.8,39.6,39.6,0,0,1,33.13-4.89,57.84,57.84,0,0,0,8.18,2.38c7.15,1.05,14.12-2.67,21.33-3.23,6.18-.47,12.26,1.39,18.16,3.37a3.22,3.22,0,0,0,2.4-.13c12.34-5.64,25.5-8.07,38.78-11a14.44,14.44,0,0,1,5.13-.52c2.82.39,5.29,2.43,8.14,2.43,4.63,0,8.34-5.37,12.88-4.43,4.76,1,6,8,10.55,9.61,3.26,1.13,6.66-.94,9.75-2.48,4.09-2,8.68-5,13.15-5.91,2.09-.43,8.67-.43,9.06-.83,2-2.06,1-4.06-.33-7.77-1.8-5.06-9.67-.52-14.61.44-10,1.92-20.18-3.17-30.23-1.8-1.51.21-3.3.47-4.24-.84a2.58,2.58,0,0,1,.42-3.32c1.66-1.63,3.94-1.44,6.06-1.44,10.4,0,20-5.14,29.73-8.74,6.95-2.56,13.54-4.66,20.61-4.39,3,.11,7.14-.62,9.68,1.25,2.13,1.56,4.73-.67,7.26-1,1.31-.19,2.36.44,3.53-.24,1.76-1,3.49-.49,5.38-.91s3.69-1.77,5.57-1.62c-1-7.94,6.32-15,14.15-16.63s15.88.66,23.55,2.94c2,.6,2.19,2.62,4.23,3.22,1.67.5,4.67,0,6.77.18a1.11,1.11,0,0,0,1.08-1.59,4.19,4.19,0,0,0-1.68-1.76c-1.25-.72-2.78-1.14-3.61-2.33-1.2-1.71-.39-4.11-1.07-6.08-1.37-4-7.32-3.75-10.2-6.81a8.81,8.81,0,0,1-1.92-3.85c-2.4-9.08,3.24-19.54,12.15-22.52A38.47,38.47,0,0,1,1420.51,76c7.29-3.92,15.26-6.37,23.17-8.79,7-2.14,14.6-4.28,21.52-1.88,9.32,3.24,14.07,13.38,21.46,19.9,6,5.3,13.77,8.18,20.26,12.89,5.81,4.23,10.78,11,10.19,18a3,3,0,0,0,3.8,3.09,9.29,9.29,0,0,0,2.6-1.34c2-1.49,4.12-3.46,6.62-3.15,1.46.18,2.69,1.13,4.06,1.68,3.38,1.35,7.34.09,10.2-2.16s4.89-5.35,7.06-8.28c4.42-6,10.11-11.73,17.44-13,2.8-.51,5.68-.33,8.53-.5,7.27-.43,14.19-3.12,21.27-4.84a9.53,9.53,0,0,1,3.55-.37,10.11,10.11,0,0,1,4.28,2.19l9.5,7h.6a19.52,19.52,0,0,1,11.78,4,6.25,6.25,0,0,0,3.89,1.45,28.73,28.73,0,0,0,4.2-.69,10,10,0,0,1,5.58.82,1.09,1.09,0,0,0,1.47-.54,5.4,5.4,0,0,1,2.35-2.6,5.05,5.05,0,0,0,1.42-.88,3.26,3.26,0,0,0,.64-1.83,36.67,36.67,0,0,0-1.77-16.72,6.61,6.61,0,0,1,1.21-6.53c4.27-4.84,11.51-5.7,17.77-7.17a4.55,4.55,0,0,0,2.38-1.06,5.74,5.74,0,0,0,1-2.94c.73-3.93,4-7,7.71-8.53S1684,51.31,1688,51c5.27-.35,10.64-.7,15.77.56,4.81,1.18,9.45,4,11.74,8.36a1.64,1.64,0,0,0,1.53.87c5-.17,10-1.67,14.94-2.69a32,32,0,0,1,18,1.62c7.9,3.09,16.31,5.55,23.53,10.16,2.83,1.8,5.46,3.93,8.49,5.37,6.08,2.89,13.3,2.78,19.25,5.94,9.82,5.21,13.28,17.53,14.14,28.62.19,2.47.36,5.13,1.95,7.05a4.15,4.15,0,0,0,6.68-.56c9.69-15.19,34-13.61,52.22-14.34,8.37-.34,17.16-.59,24.66,3.15a25.59,25.59,0,0,1,13.82,23.31,16.07,16.07,0,0,0,.17,4.95c1.31,4.56,7.66,7.07,8.42,11.28a2.23,2.23,0,0,0,1.81,1.77,10.63,10.63,0,0,1,6.74,4.31c.38.54.75,1.16,1.37,1.36.36.12,8.74,11.24,8.84,23.34.06,6.88-.76,13.65-3.41,19.77a6.6,6.6,0,0,1-1.24,1.74,31.4,31.4,0,0,1-16.8,9.41c-8.29,1.66-17.35,1.35-25.57.77l-69.24-4.81a20,20,0,0,0-7,.34c-2.32.68-4.29,2.17-6.42,3.32-8,4.33-17.82,3.65-26.71,1.61-8.15-1.87-16.12-4.78-24.41-5.67a1.83,1.83,0,0,0-2,1.75,6.81,6.81,0,0,1-3.2,5c-2.31,1.47-5.14,1.79-7.86,2.07a933.78,933.78,0,0,1-119.31,4.39c-6.33-.17-12.8-.39-18.85,1.48-29.54-.31-57.72.21-87.26-.09,0-2.42,2.31-4.28,4.68-4.78s4.81-.07,7.23-.12c8.24-.19,16.15-6.05,24.12-4,3.16.83,6.27,2.89,9.43,2.05,2.72-.73,4.4-3.35,6.24-5.48,1.61-1.86,4.09-3.54,6.36-3.07a1.26,1.26,0,0,0,1.56-1.5,1.88,1.88,0,0,0-.51-.83,4.89,4.89,0,0,0-2.93-1q-13.57-1.3-27.22-1.58c-2.13,0-4.5,0-6,1.49-.93.88-1.42,2.15-2.38,3-2.11,1.87-5,.9-7.56-.76a3.59,3.59,0,0,0-4.32.4c-3,2.56-7.53,3.31-11.61,3.09-4.26-.24-8.55-1.24-12.77-1a3.6,3.6,0,0,0-3.13,2.11,13.81,13.81,0,0,1-23,3.78,1.3,1.3,0,0,0-1.72-.2c-3.79,2.58-10.2,4-14.31,2.8a14.47,14.47,0,0,1-8.94-7.86,3.54,3.54,0,0,0-3-2c-3-.26-6.16.31-9.24.45-3.87.17-8.26-.63-10.45-3.83-.76-1.1-1.24-2.47-2.34-3.23a5.72,5.72,0,0,0-3.47-.69,35,35,0,0,0-12.67,2.83c-4.31,1.87-9,4.66-13.37,4.2a1.9,1.9,0,0,0-2,2.3h0a.23.23,0,0,1-.24.27c-2.9-.09-5.42,2.15-7.17,4.52s-3.3,5.27-5.86,6.9c-25.81-.18-51.4.55-77.18.46a6.5,6.5,0,0,1-4.77-2.33c-1.48-1.67-4.83-1.63-7.85-2a54.92,54.92,0,0,1-17.7-5.68c-2.1-1.1-4.19-2.35-6.54-2.64-3.21-.38-6.3,1.09-9.37,2.1-8.35,2.75-17.36,2.11-26.13,1.67-10.43-.53-17.83-1.25-27.16,2a4.65,4.65,0,0,0-2.64,2.56A16.82,16.82,0,0,0,1205.72,213.27Z"/><path class="cls-11" d="M1598.12,64.57a15,15,0,0,0-4.73.07c-1.58.11-3.33,0-4.45-1.18-.32-.32-.57-.71-.92-1-1.37-1.16-3.42-.41-5.09.24s-4,.94-4.87-.61c-.36-.63-.37-1.44-.81-2a3.81,3.81,0,0,0-1.16-.9,7.15,7.15,0,0,1-3.1-3.49,4.13,4.13,0,0,1,.91-4.39,6.44,6.44,0,0,1,2.37-1.18l9.77-3.33c1.59-.55,3.48-1.05,4.84-.06s1.62,2.73,3,3.25,2.92-.4,4,.4c.46.33.72.89,1.18,1.23,1.91,1.41,4.43-2.1,6.65-1.26a4.43,4.43,0,0,1,1.7,1.55,12.34,12.34,0,0,0,5.82,4,1.54,1.54,0,0,0,.76.1,1.67,1.67,0,0,0,.67-.41A6.61,6.61,0,0,1,1625,58.33a4.2,4.2,0,0,1,.28,2.24,4,4,0,0,1-3.74,2.89,8.85,8.85,0,0,1-4.8-1.45c-1.28-.74-3-1.55-4.07-.54-.33.32-.63.81-1.08.74a1,1,0,0,1-.57-.44L1608,58c-2.07,1.19-3.52,3.2-5.42,4.62"/><path class="cls-8" d="M1607.82,58.16c.16-.11.16,0,.35,0s.56,0,.7.18l2.81,4c.88-.21,1.15-1,2-1.26,2.12-.58,4.72-.75,6.87-1.42a.56.56,0,0,0,.3-.84c-.91-1.33-3-1.61-4.75-1.78a31.16,31.16,0,0,1-6.95-1.46,8.06,8.06,0,0,0-3-.62,21.44,21.44,0,0,0-3.19.92c-4.94,1.18-9.59-4.66-14.51-3.4-1.39.36-2.59,1.26-4,1.64-2.16.6-4.49-.13-6.7.26a1.17,1.17,0,0,0-.89.48,1.24,1.24,0,0,0,0,.91c.49,2.35,1.28,5.05,3.52,5.92,2,.75,4.23-.28,6.21.41a23.69,23.69,0,0,1,3.17,2c1.78,1,3.92.87,5.94.71,2.37-.18,4.85-.46,6.84-1.77C1604.78,61.47,1606.41,59.16,1607.82,58.16Z"/><path class="cls-3" d="M1590.9,55.33a9.64,9.64,0,0,0,1.43.67,5.09,5.09,0,0,0,1.25.69,8.27,8.27,0,0,0,2.91.48l3.12.14,1.56.07c.52.18,1,.35,1.54.57-.53.18-1.06.3-1.58.43l-1.57-.07-3.12-.14a9.26,9.26,0,0,1-3.23-.55,6.86,6.86,0,0,1-1.48-.81A4.53,4.53,0,0,1,1590.9,55.33Z"/><path class="cls-10" d="M1599.21,64.08a4.31,4.31,0,0,1-2.07.34,25,25,0,0,0-3.75.22c-1.58.11-3.33,0-4.45-1.18-.32-.32-.57-.71-.92-1-1.37-1.16-3.42-.41-5.09.24s-4,.94-4.87-.61c-.36-.63-.37-1.44-.81-2a3.81,3.81,0,0,0-1.16-.9,7.15,7.15,0,0,1-3.1-3.49,4.13,4.13,0,0,1,.91-4.39,6.44,6.44,0,0,1,2.37-1.18l9.77-3.33c1.59-.55,3.48-1.05,4.84-.06s1.62,2.73,3,3.25,2.92-.4,4,.4c.46.33.72.89,1.18,1.23,1.91,1.41,4.43-2.1,6.65-1.26a4.43,4.43,0,0,1,1.7,1.55,12.34,12.34,0,0,0,5.82,4,1.54,1.54,0,0,0,.76.1,1.67,1.67,0,0,0,.67-.41A6.61,6.61,0,0,1,1625,58.33a4.2,4.2,0,0,1,.28,2.24,4,4,0,0,1-3.74,2.89,8.85,8.85,0,0,1-4.8-1.45c-1.28-.74-3-1.55-4.07-.54-.33.32-.63.81-1.08.74a1,1,0,0,1-.57-.44l-2.3-2.9a1.25,1.25,0,0,0-1.75-.23c-1.56,1.18-2.82,2.75-4.39,3.93Z"/></g></g></svg>